<svg width="1008" height="384" viewBox="0 0 1008 384" fill="none" xmlns="http://www.w3.org/2000/svg">
<g clip-path="url(#clip0_10045_1444)">
<g opacity="0.05">
<path d="M3174.75 1116.94C3204.92 765.586 2775.27 439.807 2414.32 361.768C1998.36 271.879 1774.13 532.755 1479.11 370.274C1209.87 222.099 1259.1 -71.0425 1057.75 -165.1C872.713 -251.531 524.71 -147.139 -180.959 602.351" stroke="white" stroke-width="2" stroke-miterlimit="10"/>
<path d="M-165.544 646.249C531.095 -92.1401 880.821 -203.247 1070.4 -123.939C1210.86 -64.9597 1235.09 88.4021 1324.42 224.394C1368.62 293.986 1429.4 351.51 1501.31 391.8C1736.83 523.971 1925.02 393.821 2211.05 384.977C2284 382.514 2356.99 388.637 2428.51 403.22C2792.17 476.131 3223.06 771.903 3203.13 1112.55" stroke="white" stroke-width="2" stroke-miterlimit="10"/>
<path d="M-150.041 690.043C537.554 -37.1858 888.812 -154.99 1082.5 -82.8389C1224.87 -29.7897 1253.98 117.642 1344.83 248.106C1390.86 315.979 1451.77 372.443 1522.93 413.193C1754.52 545.764 1938.92 431.932 2225.13 426.592C2297.9 425.09 2370.63 431.128 2442.15 444.61C2808.34 513.524 3240.68 778.1 3230.99 1108.05" stroke="white" stroke-width="2" stroke-miterlimit="10"/>
<path d="M-134.571 733.706C543.822 17.7863 896.776 -106.616 1094.85 -41.7449C1239.23 5.51899 1273.01 146.848 1365.53 271.885C1413.27 337.978 1474.26 393.393 1544.61 434.599C1772.51 567.624 1952.6 469.93 2239.28 468.22C2311.93 467.531 2384.49 473.441 2456.07 485.878C2824.86 550.134 3258.52 784.16 3259.06 1103.41" stroke="white" stroke-width="2" stroke-miterlimit="10"/>
<path d="M-119.168 777.663C550.222 72.7266 904.609 -58.2093 1107.24 -0.578571C1253.44 40.9185 1292.19 176.213 1386.36 295.632C1435.86 359.981 1497.04 414.421 1566.7 456.099C1790.91 589.578 1966.85 508.12 2254.12 510.01C2326.48 510.264 2398.71 516.089 2470.16 527.434C2841.63 587.047 3276.58 790.581 3287.41 1099.14" stroke="white" stroke-width="2" stroke-miterlimit="10"/>
<path d="M-103.972 821.449C556.564 127.654 913.924 -15.4605 1119.65 40.5294C1266.54 80.3314 1311.46 205.167 1407.07 319.412C1458.3 381.921 1519.67 435.38 1588.61 477.559C1809.13 611.492 1980.81 546.244 2268.25 551.697C2340.4 552.752 2412.41 558.453 2483.82 568.765C2858.01 623.499 3294.21 796.719 3315.27 1094.64" stroke="white" stroke-width="2" stroke-miterlimit="10"/>
<path d="M-88.2471 865.355C562.951 182.653 920.184 39.0148 1132.07 81.3298C1281.55 111.958 1330.76 234.5 1427.81 343.263C1480.73 403.898 1542.29 456.4 1610.51 499.078C1827.35 633.464 1994.94 584.408 2282.62 593.438C2354.55 595.365 2426.33 600.982 2497.69 610.268C2874.55 660.358 3312.09 802.851 3343.35 1090.24" stroke="white" stroke-width="2" stroke-miterlimit="10"/>
<path d="M-72.8187 909.195C569.173 237.553 927.983 87.2903 1144.4 122.79C1295.63 147.389 1350.31 263.331 1448.59 366.997C1503.13 425.703 1564.92 477.237 1632.46 520.361C1845.54 655.247 2009.03 622.5 2297.04 634.944C2364.04 637.914 2435.27 642.349 2511.61 651.476C2891.24 696.76 3329.93 809.159 3371.45 1085.73" stroke="white" stroke-width="2" stroke-miterlimit="10"/>
<path d="M-57.3901 953.034C575.675 292.579 935.636 136.212 1156.77 163.767C1309.7 182.879 1369.9 292.234 1469.49 390.699C1525.68 447.452 1587.72 498.102 1654.56 541.803C1863.95 677.143 2023.26 660.501 2311.59 676.667C2378.72 680.409 2449.75 684.921 2525.74 692.915C2907.6 733.33 3347.78 815.41 3399.55 1081.22" stroke="white" stroke-width="2" stroke-miterlimit="10"/>
<path d="M-41.8866 996.828C582.076 347.52 943.317 185.016 1169.14 205.051C1323.68 218.722 1389.75 321.322 1490.06 414.51C1547.81 469.266 1610.09 519.048 1676.21 563.326C1881.97 699.134 2037.13 698.729 2325.82 718.191C2392.79 722.638 2463.88 727.164 2539.49 734.083C2924.53 769.538 3365.71 821.307 3427.71 1076.48" stroke="white" stroke-width="2" stroke-miterlimit="10"/>
<path d="M-26.4566 1040.67C588.416 402.447 950.971 233.938 1181.38 246.118C1337.52 254.407 1409.25 350.081 1510.69 438.334C1570.01 491.005 1632.57 539.909 1698.01 584.759C1900.02 721.007 2051.04 736.781 2340.02 760.14C2407.09 765.477 2478.02 769.903 2553.19 775.794C2940.98 806.193 3383.32 827.81 3455.67 1072.31" stroke="white" stroke-width="2" stroke-miterlimit="10"/>
<path d="M-11.0281 1084.51C594.801 457.446 958.74 282.886 1193.9 287.252C1351.69 290.231 1429.18 378.876 1531.51 462.14C1590.34 509.978 1650.68 558.472 1720.04 606.245C1918.37 742.889 2065.23 774.958 2354.51 801.849C2421.59 807.99 2492.41 812.33 2567.31 817.233C2957.87 842.577 3401.42 834.055 3483.94 1067.89" stroke="white" stroke-width="2" stroke-miterlimit="10"/>
<path d="M4.40586 1128.35C601.151 512.622 966.077 331.859 1206.24 328.406C1365.69 326.015 1449.13 407.553 1552.27 485.933C1613.13 532.195 1673.87 579.79 1741.95 627.706C1936.56 764.979 2079.27 813.037 2368.89 843.532C2435.96 850.535 2506.74 854.804 2581.09 858.591C2974.38 878.75 3419.18 840.22 3511.91 1063.42" stroke="white" stroke-width="2" stroke-miterlimit="10"/>
<path d="M19.7166 1172.16C607.53 567.372 974.041 381.037 1218.58 369.559C1379.65 361.975 1469.09 436.171 1573.01 509.784C1635.99 554.367 1697.05 601.107 1763.61 649.17C1954.63 786.735 2093.03 851.178 2383.24 885.331C2450.38 893.093 2521 897.263 2594.95 900.093C2991.06 914.962 3437.04 846.411 3540 1058.96" stroke="white" stroke-width="2" stroke-miterlimit="10"/>
<path d="M35.337 1215.98C613.931 622.313 981.569 430.239 1230.99 410.667C1393.75 397.845 1489.16 464.627 1593.73 533.505C1658.83 576.349 1720.3 622.38 1785.77 670.625C1972.98 808.617 2107.37 889.266 2397.64 926.955C2467.78 935.326 2538.32 940.1 2608.95 941.258C3007.7 951.103 3455.06 852.76 3568.1 1054.46" stroke="white" stroke-width="2" stroke-miterlimit="10"/>
<path d="M50.7674 1259.82C620.317 677.312 989.607 479.372 1243.16 451.721C1407.6 433.719 1509.06 492.983 1614.55 557.311C1681.79 598.358 1743.55 643.652 1807.69 692.085C1991.27 830.545 2121.44 927.416 2411.9 968.61C2481.78 977.857 2552.19 982.594 2622.69 982.792C3024.41 986.891 3472.75 858.911 3596.31 1049.78" stroke="white" stroke-width="2" stroke-miterlimit="10"/>
<path d="M66.1973 1303.66C626.658 732.239 997.551 528.917 1255.74 492.869C1421.72 469.778 1529.34 521.302 1635.26 581.031C1704.66 620.222 1766.68 664.956 1829.54 713.531C2009.37 852.431 2135.47 965.495 2426.39 1010.32C2496.03 1020.36 2566.34 1025.01 2636.69 1024.2C3040.98 1023.08 3490.6 865.161 3624.34 1045.57" stroke="white" stroke-width="2" stroke-miterlimit="10"/>
<path d="M81.6864 1347.51C632.991 787.473 1005.07 578.178 1268.08 534.022C1435.92 505.792 1549.47 549.464 1655.97 604.811C1727.78 642.082 1789.87 686.214 1851.45 734.991C2027.62 874.228 2149.49 1003.63 2440.76 1052.06C2510.15 1062.87 2580.37 1067.41 2650.57 1065.65C3057.59 1059.03 3508.47 871.352 3652.43 1041.11" stroke="white" stroke-width="2" stroke-miterlimit="10"/>
<path d="M97.1171 1391.35C639.151 842.112 1012.91 627.636 1280.44 575.364C1449.98 542.086 1569.5 577.788 1676.65 628.956C1750.43 664.39 1813.09 707.911 1873.28 756.803C2045.74 896.611 2163.48 1042.13 2455.08 1093.98C2524.22 1105.54 2594.36 1110 2664.41 1107.27C3074.18 1095.09 3526.53 878.021 3680.47 1036.9" stroke="white" stroke-width="2" stroke-miterlimit="10"/>
<path d="M112.545 1435.19C645.77 897.165 1020.8 677.108 1292.82 616.282C1464.22 577.924 1589.67 605.525 1697.48 652.396C1773.53 685.504 1836.29 728.862 1895.25 778.028C2063.95 918.276 2177.56 1079.98 2469.49 1135.54C2538.37 1147.9 2608.44 1152.26 2678.32 1148.53C3090.84 1130.62 3544.18 883.793 3708.61 1032.21" stroke="white" stroke-width="2" stroke-miterlimit="10"/>
<path d="M128.049 1478.98C652.172 952.105 1028.64 726.875 1305 657.336C1478.15 614.002 1609.5 633.371 1717.95 676.121C1796.25 706.962 1859.25 750.068 1916.91 799.245C2081.97 940.019 2191.43 1117.96 2483.66 1177.05C2552.3 1190.14 2622.34 1194.41 2692.07 1189.76C3107.13 1165.57 3561.8 889.989 3736.6 1027.67" stroke="white" stroke-width="2" stroke-miterlimit="10"/>
<path d="M143.418 1522.81C979.275 685.717 1454.51 599.008 1738.94 699.967C2049.45 810.169 2103.42 1134.16 2498.26 1218.85C2961.45 1318.13 3548.55 874.715 3764.8 1023.25" stroke="white" stroke-width="2" stroke-miterlimit="10"/>
</g>
</g>
<defs>
<clipPath id="clip0_10045_1444">
<rect width="1008" height="384" fill="white"/>
</clipPath>
</defs>
</svg>
