
<svg width="259" height="259" viewBox="0 0 259 259" fill="none" xmlns="http://www.w3.org/2000/svg">
<path d="M129.712 1.00006H130.712L128.73 0.809216L129.712 1.00006ZM1.00012 129.712L0.809278 128.73L1.00012 130.712V129.712ZM129.712 129.712V130.712H130.712V129.712H129.712ZM128.73 0.809216C116.185 65.3366 65.3367 116.185 0.809278 128.73L1.19097 130.693C66.5186 117.992 117.992 66.5186 130.693 1.19091L128.73 0.809216ZM129.712 128.712H1.00012V130.712H129.712V128.712ZM128.712 1.00006V129.712H130.712V1.00006H128.712Z" fill="#F5F6F7"/>
<path d="M129.712 258.423L128.712 258.423L130.693 258.614L129.712 258.423ZM258.423 129.712L258.614 130.693L258.423 128.712L258.423 129.712ZM129.712 129.712L129.712 128.712L128.712 128.712L128.712 129.712L129.712 129.712ZM130.693 258.614C143.239 194.086 194.087 143.239 258.614 130.693L258.232 128.73C192.905 141.431 141.431 192.905 128.73 258.232L130.693 258.614ZM129.712 130.712L258.423 130.712L258.423 128.712L129.712 128.712L129.712 130.712ZM130.712 258.423L130.712 129.712L128.712 129.712L128.712 258.423L130.712 258.423Z" fill="#F5F6F7"/>
</svg>
