
<svg width="578" height="579" viewBox="0 0 578 579" fill="none" xmlns="http://www.w3.org/2000/svg">
<g opacity="0.1">
<path d="M7.95435 558.725C10.3257 560.931 12.5675 563.016 15.0951 565.367C12.6091 567.494 10.8892 568.967 8.61466 570.913L276.403 570.913C246.948 540.918 217.977 510.874 188.398 481.444C158.49 451.682 129.233 421.227 98.7838 392.074C68.6774 363.251 40.6322 332.326 8.53087 302.341L8.53087 322.271C10.4249 323.839 12.62 325.653 15.3061 327.877C12.6553 330.089 10.4821 331.903 8.0843 333.905L8.0843 347.14C10.669 349.548 12.9985 351.716 16.0078 354.516C12.7543 356.321 10.3939 357.632 7.82464 359.057C7.82464 362.552 8.18997 365.956 7.74113 369.251C7.05919 374.234 9.78477 376.829 13.4431 379.156C13.9687 379.492 14.0305 380.561 14.4616 381.698C12.3454 383.387 10.1281 385.156 8.12405 386.754C7.38263 394.531 6.55544 401.955 16.3093 406.677C4.19065 411.401 8.59894 420.264 7.87754 427.491C10.3215 429.776 12.5477 431.856 15.4382 434.557C5.68663 438.74 7.71039 446.182 8.16352 453.211C10.3148 454.974 12.519 456.787 15.2425 459.023C12.4333 461.493 10.0641 463.573 8.4009 465.038L8.40091 480.237C11.3487 482.293 14.3406 483.265 14.6925 484.829C15.8739 490.072 9.96965 488.594 7.98764 490.795L7.98764 506.014C10.3084 507.912 12.5146 509.72 15.623 512.264C3.94657 517.58 8.58161 526.724 8.23845 534.384C11.2125 535.831 13.2628 536.83 17.0859 538.69C12.8844 541.017 10.4206 542.381 7.95461 543.74L7.95435 558.725ZM560.496 570.872C471.579 481.97 382.34 392.747 293.706 304.134C291.856 322.269 292.565 561.49 294.716 570.872L560.496 570.872ZM277.03 285.594C261.574 267.336 16.4107 23.2723 7.82704 17.7214C7.82704 105.055 7.82475 191.986 7.84236 278.917C7.84236 280.591 8.03153 282.264 8.22071 283.929C8.25804 284.275 8.67399 284.585 8.9358 284.895C9.2062 285.216 9.50335 285.515 9.58027 285.594L277.03 285.594ZM12.4441 294.593C103.522 385.639 193.533 475.621 284.436 566.495C286.936 526.885 285.86 303.942 283.275 294.593L12.4441 294.593ZM2.92129 -1.27695e-07C97.0017 94.0391 190.253 187.247 285.273 282.229L285.273 0.987475C288.977 1.94188 291.48 2.01665 293.269 3.18675C295.682 4.76573 297.565 7.16948 299.644 9.24993C389.725 99.3018 479.806 189.358 569.876 279.419C572.252 281.796 574.852 284.035 576.775 286.744C577.782 288.165 577.549 290.465 578 293.096C563.937 295.121 550.555 293.775 537.244 294.024C524.217 294.268 511.179 294.077 498.146 294.077L297.869 294.077C391.887 388.83 484.762 482.434 577.608 576.068C577.782 576.242 577.498 576.867 577.38 577.573C576.438 578.002 575.349 578.938 574.258 578.938C383.447 579.002 192.635 579 2.48577 579C1.52228 578.03 1.18784 577.76 0.94146 577.425C0.701662 577.106 0.387218 576.722 0.387218 576.367C0.237646 386.812 0.112084 197.253 -2.49724e-05 7.69727C-2.50272e-05 6.44373 0.0571595 5.15729 0.349599 3.94989C0.534491 3.1955 1.21426 2.56433 2.92129 -1.27695e-07Z" fill="#F5F6F7"/>
<path d="M142.999 559.704C144.614 562.459 146.07 563.944 146.198 565.534C146.275 566.508 143.967 568.707 143.338 568.501C141.748 567.982 139.599 566.561 139.381 565.222C139.174 563.966 141.152 562.349 142.999 559.704Z" fill="#F5F6F7"/>
<path d="M142.997 506.72C144.612 509.478 146.064 510.963 146.189 512.548C146.266 513.525 143.965 515.722 143.338 515.515C141.75 514.994 139.607 513.578 139.385 512.24C139.179 510.985 141.152 509.37 142.997 506.72Z" fill="#F5F6F7"/>
<path d="M23.8417 441.141C25.7445 443.75 27.7661 445.329 27.5812 446.58C27.3812 447.919 25.2451 449.382 23.6612 449.91C23.0123 450.125 20.6739 447.974 20.7354 447.004C20.8343 445.417 22.2711 443.912 23.8417 441.141Z" fill="#F5F6F7"/>
<path d="M82.5293 446.197C79.8984 448.09 78.3082 450.096 77.0564 449.903C75.708 449.698 74.2605 447.574 73.7127 445.992C73.4972 445.37 75.6638 443.034 76.6472 443.096C78.2353 443.193 79.7423 444.624 82.5293 446.197Z" fill="#F5F6F7"/>
<path d="M129.446 441.122C131.556 443.68 133.663 445.14 133.542 446.385C133.41 447.742 131.38 449.299 129.834 449.941C129.231 450.189 126.798 448.188 126.782 447.185C126.758 445.613 128.076 444.02 129.446 441.122Z" fill="#F5F6F7"/>
<path d="M137.557 461.122C140.582 458.26 142.177 456.752 144.064 454.968C145.837 459.949 143.668 462 137.557 461.122Z" fill="#F5F6F7"/>
<path d="M32.5199 461.108C34.5788 458.847 36.2286 457.037 38.2833 454.779C39.8877 460.041 37.9665 462.151 32.5199 461.108Z" fill="#F5F6F7"/>
<path d="M36.5938 481.284C40.0585 483.27 42.0846 485.5 38.4198 488.794C37.8061 489.346 35.9384 489.428 35.3379 488.915C31.638 485.759 33.6043 483.437 36.5938 481.284Z" fill="#F5F6F7"/>
<path d="M177.549 552.572C180.444 547.995 183.148 547.582 186.208 552.369C183.445 557.023 180.728 556.986 177.549 552.572Z" fill="#F5F6F7"/>
<path d="M107.849 552.559C105.759 556.13 103.276 557.381 100.262 553.801C99.7782 553.225 99.9762 551.336 100.561 550.722C103.936 547.173 106.078 549.214 107.849 552.559Z" fill="#F5F6F7"/>
<path d="M31.4968 513.879C34.6865 511.068 36.3472 509.605 38.3292 507.859C39.913 513.058 37.6356 515.065 31.4968 513.879Z" fill="#F5F6F7"/>
<path d="M200.53 566.128C195.871 569.572 193.286 569.776 192.281 565.727C192.013 564.65 193.485 563.141 194.158 561.828C195.964 563.047 197.77 564.263 200.53 566.128Z" fill="#F5F6F7"/>
<path d="M91.7292 439.048C88.8936 436.028 87.3867 434.423 85.5938 432.514C90.6358 430.748 92.681 432.926 91.7292 439.048Z" fill="#F5F6F7"/>
<path d="M90.8928 454.376C94.2673 459.034 94.4764 461.62 90.442 462.608C89.3684 462.87 87.8727 461.398 86.5682 460.723C87.7912 458.926 89.0165 457.13 90.8928 454.376Z" fill="#F5F6F7"/>
<path d="M210.297 557.619C207.453 554.604 205.931 552.988 204.134 551.083C209.262 549.295 211.316 551.473 210.297 557.619Z" fill="#F5F6F7"/>
<path d="M254.352 568.558C248.223 567.786 245.889 565.159 247.348 560.679C249.385 562.972 251.02 564.809 254.352 568.558Z" fill="#F5F6F7"/>
<path d="M36.9567 534.415C39.7636 536.095 41.8909 538.055 39.0797 541.127C38.3647 541.91 35.8062 542.255 35.1661 541.657C31.708 538.422 33.4723 536.146 36.9567 534.415Z" fill="#F5F6F7"/>
<path d="M91.1326 507.712C92.8822 512.934 91.0235 515.079 85.5564 514.147C87.5471 511.851 89.1375 510.014 91.1326 507.712Z" fill="#F5F6F7"/>
<path d="M37.7903 560.227C41.2704 564.844 41.631 567.461 37.5416 568.536C36.444 568.826 34.8953 567.392 33.5534 566.75C34.7633 564.89 35.9711 563.029 37.7903 560.227Z" fill="#F5F6F7"/>
<path d="M23.1573 335.755C25.0029 338.541 26.2106 340.36 27.4183 342.181C26.0897 342.849 24.5477 344.321 23.4675 344.039C19.4354 342.983 19.642 340.391 23.1573 335.755Z" fill="#F5F6F7"/>
<path d="M22.8779 389.328C24.7698 391.118 26.3712 392.633 28.8569 394.984C26.5493 396.04 25.0732 397.359 23.9756 397.1C20.39 396.246 20.4427 396.027 22.8779 389.328Z" fill="#F5F6F7"/>
<path d="M128.078 503.722C127.163 498.271 129.306 496.397 134.506 498.099C132.212 500.107 130.375 501.712 128.078 503.722Z" fill="#F5F6F7"/>
<path d="M82.0084 394.529C77.3955 397.955 74.7731 398.333 73.6931 394.256C73.405 393.169 74.8436 391.623 75.4904 390.288C77.3205 391.478 79.1508 392.668 82.0084 394.529Z" fill="#F5F6F7"/>
<path d="M128.791 556.786C125.991 548.84 126.019 548.849 134.381 550.406C132.383 552.684 130.78 554.518 128.791 556.786Z" fill="#F5F6F7"/>
<path d="M22.8297 503.813C20.0249 495.871 20.0534 495.882 28.4237 497.442C26.4241 499.718 24.8183 501.548 22.8297 503.813Z" fill="#F5F6F7"/>
<path d="M20.689 558.044C21.4502 551.915 24.0738 549.578 28.5599 551.033C26.2677 553.074 24.431 554.71 20.689 558.044Z" fill="#F5F6F7"/>
<path d="M157.159 504.715C154.394 501.554 152.944 499.894 151.222 497.925C156.477 496.288 158.456 498.551 157.159 504.715Z" fill="#F5F6F7"/>
<path d="M151.051 551.068C156.272 549.344 158.406 551.216 157.454 556.685C155.166 554.677 153.336 553.071 151.051 551.068Z" fill="#F5F6F7"/>
<path d="M81.4649 550.463C79.4058 552.73 77.7583 554.545 75.7058 556.808C74.0413 551.515 75.961 549.4 81.4649 550.463Z" fill="#F5F6F7"/>
<path d="M45.2078 419.169C50.6985 418.188 52.5787 420.331 50.8483 425.597C48.8332 423.301 47.2184 421.461 45.2078 419.169Z" fill="#F5F6F7"/>
<path d="M151.638 525.517C152.918 524.059 154.201 522.601 156.632 519.834C157.6 522.922 158.187 524.807 158.776 526.691C156.724 527.186 154.674 527.683 152.624 528.178C152.294 527.289 151.966 526.403 151.638 525.517Z" fill="#F5F6F7"/>
<path d="M31.9809 379.899C36.6071 376.414 39.2137 376.117 40.2806 380.181C40.5689 381.272 39.1236 382.816 38.4747 384.151C36.6446 382.954 34.8165 381.756 31.9809 379.899Z" fill="#F5F6F7"/>
<path d="M38.283 438.223C36.2284 435.964 34.5808 434.154 32.5263 431.896C37.9715 430.845 39.8904 432.954 38.283 438.223Z" fill="#F5F6F7"/>
<path d="M217.759 564.052C219.745 563.502 221.727 562.954 223.712 562.404C223.685 564.23 223.661 566.057 223.634 567.885C221.666 567.256 219.695 566.625 217.724 565.993C217.737 565.347 217.75 564.7 217.759 564.052Z" fill="#F5F6F7"/>
<path d="M144.616 535.194C145.177 537.318 146.152 538.919 145.712 539.865C145.169 541.028 143.45 541.646 142.238 542.497C141.358 540.863 140.478 539.229 139.599 537.593C140.967 536.94 142.333 536.285 144.616 535.194Z" fill="#F5F6F7"/>
<path d="M186.824 525.084C184.929 526.43 183.662 527.327 182.393 528.229C181.434 526.769 180.475 525.308 179.516 523.848C180.682 523.083 181.984 521.563 182.98 521.741C184.221 521.963 185.213 523.588 186.824 525.084Z" fill="#F5F6F7"/>
<path d="M186.273 500.617C184.3 501.11 182.323 501.598 180.347 502.088C180.433 500.261 180.521 498.433 180.607 496.606C182.525 497.288 184.443 497.969 186.361 498.651C186.333 499.306 186.304 499.964 186.273 500.617Z" fill="#F5F6F7"/>
<path d="M195.825 534.868C197.29 536.647 199.021 537.841 198.92 538.853C198.791 540.155 197.193 541.312 196.228 542.532C194.943 541.265 193.372 540.153 192.556 538.635C192.325 538.2 194.29 536.588 195.825 534.868Z" fill="#F5F6F7"/>
<path d="M195.53 505.779C197.059 508.755 198.663 510.446 198.34 511.603C197.919 513.116 195.979 514.209 194.692 515.482C193.801 514.325 192.303 513.226 192.193 511.998C192.09 510.824 193.425 509.522 195.53 505.779Z" fill="#F5F6F7"/>
<path d="M136.187 472.067C132.733 474.084 131.459 475.43 130.289 475.346C129.066 475.258 127.944 473.791 126.778 472.929C128.03 471.612 129.088 469.655 130.601 469.195C131.688 468.865 133.384 470.536 136.187 472.067Z" fill="#F5F6F7"/>
<path d="M120.735 460.182C118.769 460.737 116.8 461.293 114.833 461.847C114.871 460.028 114.906 458.21 114.941 456.393C116.879 457.011 118.817 457.629 120.757 458.247C120.748 458.891 120.742 459.538 120.735 460.182Z" fill="#F5F6F7"/>
<path d="M216.619 539.304C218.256 537.934 219.277 536.394 220.41 536.311C221.692 536.214 223.072 537.419 224.409 538.059C223.34 539.605 222.271 541.156 221.202 542.704C219.948 541.774 218.694 540.843 216.619 539.304Z" fill="#F5F6F7"/>
<path d="M236.035 545.136C237.511 548.732 238.899 550.458 238.58 551.774C238.208 553.306 236.349 554.481 235.133 555.809C234.185 554.683 232.627 553.636 232.467 552.407C232.313 551.23 233.611 549.862 236.035 545.136Z" fill="#F5F6F7"/>
<path d="M23.7183 520.973C25.2493 522.577 26.8924 523.546 27.1477 524.798C27.3544 525.807 25.8873 527.16 25.1635 528.361C23.6853 527.419 22.2092 526.478 20.7309 525.539C21.5866 524.23 22.4424 522.922 23.7183 520.973Z" fill="#F5F6F7"/>
<path d="M130.485 521.002C131.78 522.922 132.652 524.213 133.525 525.506C132.056 526.458 130.588 527.408 129.121 528.361C128.382 527.171 126.897 525.838 127.091 524.829C127.333 523.584 128.967 522.607 130.485 521.002Z" fill="#F5F6F7"/>
<path d="M120.766 434.83C118.797 435.41 116.831 435.989 114.862 436.567C114.875 434.746 114.886 432.923 114.899 431.102C116.857 431.7 118.817 432.301 120.777 432.901C120.773 433.543 120.77 434.188 120.766 434.83Z" fill="#F5F6F7"/>
<path d="M209.411 521.459C209.99 523.436 210.57 525.416 211.149 527.393C209.319 527.382 207.488 527.371 205.658 527.362C206.268 525.361 206.877 523.362 207.488 521.36C208.131 521.393 208.771 521.426 209.411 521.459Z" fill="#F5F6F7"/>
<path d="M51.0992 467.266C52.0362 469.445 53.2154 470.875 53.002 472.051C52.7821 473.252 51.1935 474.2 50.2058 475.26C49.0928 473.852 47.5376 472.572 47.0845 470.978C46.9019 470.338 49.1414 469.01 51.0992 467.266Z" fill="#F5F6F7"/>
<path d="M54.3943 499.524C52.6036 500.993 51.4028 502.726 50.3887 502.623C49.0776 502.491 47.9159 500.89 46.6929 499.922C47.9687 498.64 49.093 497.063 50.6196 496.254C51.0618 496.021 52.6697 497.985 54.3943 499.524Z" fill="#F5F6F7"/>
<path d="M117.451 505.031C118.927 508.513 120.353 510.241 120.025 511.519C119.633 513.043 117.737 514.178 116.492 515.482C115.566 514.356 114.035 513.303 113.888 512.082C113.749 510.916 115.049 509.577 117.451 505.031Z" fill="#F5F6F7"/>
<path d="M116.996 534.901C118.725 536.553 120.821 538.09 120.632 538.455C119.829 540.019 118.353 541.237 117.119 542.579C116.076 541.4 114.435 540.333 114.191 539.005C114.011 538.039 115.669 536.729 116.996 534.901Z" fill="#F5F6F7"/>
<path d="M120.793 565.917C118.846 566.585 116.897 567.256 114.95 567.925C114.888 566.097 114.829 564.27 114.767 562.44C116.754 562.95 118.738 563.458 120.724 563.968C120.746 564.617 120.768 565.266 120.793 565.917Z" fill="#F5F6F7"/>
<path d="M156.475 468.544C157.03 470.51 157.582 472.478 158.136 474.444C156.315 474.402 154.493 474.365 152.674 474.325C153.294 472.39 153.915 470.455 154.533 468.519C155.182 468.528 155.829 468.537 156.475 468.544Z" fill="#F5F6F7"/>
<path d="M164.771 564.144C166.737 563.548 168.704 562.955 170.671 562.359C170.686 564.184 170.701 566.009 170.717 567.835C168.735 567.252 166.757 566.669 164.78 566.084C164.777 565.44 164.775 564.791 164.771 564.144Z" fill="#F5F6F7"/>
<path d="M164.804 511.081C166.777 510.529 168.748 509.975 170.721 509.423C170.697 511.242 170.67 513.063 170.646 514.881C168.688 514.257 166.729 513.63 164.771 513.003C164.78 512.363 164.79 511.723 164.804 511.081Z" fill="#F5F6F7"/>
<path d="M77.9694 468.497C78.636 470.437 79.3005 472.377 79.9648 474.316C78.1345 474.376 76.3065 474.437 74.4764 474.497C74.9888 472.52 75.4992 470.54 76.0118 468.563C76.6651 468.539 77.3183 468.519 77.9694 468.497Z" fill="#F5F6F7"/>
<path d="M90.8643 402.961C91.4143 404.918 91.9642 406.875 92.5142 408.835C90.695 408.798 88.8756 408.765 87.0564 408.729C87.6746 406.798 88.2928 404.868 88.9108 402.937C89.562 402.945 90.2133 402.954 90.8643 402.961Z" fill="#F5F6F7"/>
<path d="M90.834 481.174C91.4037 483.146 91.9711 485.121 92.5386 487.094C90.7194 487.055 88.8981 487.017 87.0789 486.98C87.6969 485.005 88.3131 483.032 88.9312 481.057C89.5647 481.095 90.2004 481.134 90.834 481.174Z" fill="#F5F6F7"/>
<path d="M88.8756 543.053C88.2774 541.101 87.6814 539.148 87.083 537.195C88.9088 537.173 90.7369 537.153 92.5628 537.131C91.9887 539.101 91.4144 541.072 90.8426 543.04C90.187 543.045 89.529 543.049 88.8756 543.053Z" fill="#F5F6F7"/>
<path d="M24.7212 468.014C25.9488 470.081 26.7384 471.409 27.526 472.738C26.0016 473.606 24.4769 474.475 22.9503 475.344C22.3124 474.108 20.9814 472.718 21.2169 471.678C21.4896 470.472 23.133 469.575 24.7212 468.014Z" fill="#F5F6F7"/>
<path d="M90.0769 559.026C92.0875 562.464 93.4451 563.748 93.357 564.923C93.2646 566.154 91.7841 567.28 90.9085 568.452C89.593 567.192 87.6308 566.126 87.1798 564.608C86.8542 563.511 88.537 561.817 90.0769 559.026Z" fill="#F5F6F7"/>
<path d="M76.1106 424.476C75.5497 422.503 74.9865 420.53 74.4256 418.558C76.2492 418.591 78.075 418.621 79.903 418.654C79.287 420.601 78.6713 422.547 78.0553 424.496C77.4085 424.489 76.7595 424.482 76.1106 424.476Z" fill="#F5F6F7"/>
<path d="M37.823 402.917C38.406 404.881 38.987 406.844 39.5698 408.808C37.7418 408.802 35.9139 408.795 34.0859 408.789C34.6909 406.798 35.2934 404.808 35.8982 402.82C36.5407 402.851 37.1807 402.884 37.823 402.917Z" fill="#F5F6F7"/>
<path d="M76.1764 502.773C75.5825 500.807 74.9887 498.838 74.3926 496.872C76.2271 496.861 78.0619 496.852 79.8942 496.841C79.3069 498.816 78.7172 500.793 78.1278 502.768C77.4766 502.77 76.8276 502.77 76.1764 502.773Z" fill="#F5F6F7"/>
<path d="M49.744 518.536C51.8052 522.17 53.1492 523.474 53.0568 524.666C52.9622 525.899 51.475 527.026 50.5952 528.198C49.2797 526.913 47.32 525.818 46.8646 524.281C46.5368 523.157 48.191 521.45 49.744 518.536Z" fill="#F5F6F7"/>
<path d="M46.167 551.419C48.1446 550.828 50.1245 550.236 52.1042 549.645C52.0976 551.481 52.0932 553.317 52.0889 555.152C50.0826 554.553 48.0763 553.955 46.0722 553.357C46.1031 552.71 46.134 552.066 46.167 551.419Z" fill="#F5F6F7"/>
<path d="M37.9005 349.959C38.4549 351.934 39.0067 353.909 39.5589 355.884C37.7243 355.847 35.8876 355.807 34.0509 355.769C34.6712 353.823 35.2936 351.879 35.9139 349.933C36.5761 349.941 37.2383 349.95 37.9005 349.959Z" fill="#F5F6F7"/>
<path d="M65.05 402.448C66.2643 404.458 67.0651 405.782 67.868 407.108C66.337 407.983 64.8059 408.859 63.2748 409.736C62.6105 408.505 61.2226 407.099 61.4689 406.09C61.7636 404.867 63.4442 403.981 65.05 402.448Z" fill="#F5F6F7"/>
<path d="M67.7802 434.825C65.8113 435.408 63.8403 435.991 61.8693 436.571C61.8803 434.744 61.8889 432.914 61.9 431.086C63.8644 431.685 65.8268 432.283 67.7912 432.881C67.7868 433.53 67.7845 434.176 67.7802 434.825Z" fill="#F5F6F7"/>
<path d="M63.0704 454.61C65.006 456.457 67.2411 458.012 67.0277 458.491C66.3434 460.05 64.7621 461.212 63.5258 462.529C62.5909 461.407 61.0597 460.365 60.8947 459.142C60.7407 457.985 62.0254 456.637 63.0704 454.61Z" fill="#F5F6F7"/>
<path d="M59.4341 485.617C62.1024 483.752 63.4815 482.28 65.1116 481.911C65.723 481.772 67.5622 484.159 67.6193 485.447C67.659 486.318 65.6352 487.875 64.3946 488.036C63.2375 488.185 61.8934 486.894 59.4341 485.617Z" fill="#F5F6F7"/>
<path d="M64.5486 504.677C66.0114 508.411 67.3775 510.166 67.0411 511.488C66.6517 513.027 64.7708 514.186 63.5368 515.51C62.593 514.384 61.0509 513.34 60.8858 512.108C60.7275 510.947 62.0188 509.59 64.5486 504.677Z" fill="#F5F6F7"/>
<path d="M63.6181 543.102C62.9385 541.143 62.261 539.185 61.5813 537.226C63.4291 537.173 65.279 537.118 67.1246 537.063C66.6165 539.051 66.1083 541.037 65.598 543.025C64.9381 543.049 64.278 543.076 63.6181 543.102Z" fill="#F5F6F7"/>
<path d="M64.3438 558.527C65.8485 561.646 67.3992 563.357 67.0736 564.56C66.6622 566.082 64.7224 567.188 63.4421 568.474C62.5313 567.326 61.0003 566.238 60.8838 565.015C60.7715 563.834 62.1154 562.512 64.3438 558.527Z" fill="#F5F6F7"/>
<path d="M51.398 364.419C52.0096 365.716 53.248 367.115 53.0588 368.285C52.8586 369.515 51.2926 370.522 50.3247 371.628C49.1676 370.262 47.3856 369.037 47.0424 367.493C46.73 366.099 47.9905 364.353 48.558 362.763C49.5039 363.315 50.4521 363.867 51.398 364.419Z" fill="#F5F6F7"/>
<path d="M45.7008 392.969C47.7621 391.742 49.0931 390.953 50.4218 390.163C51.2907 391.692 52.1595 393.22 53.0284 394.749C51.7898 395.393 50.3931 396.732 49.3571 396.495C48.1471 396.22 47.256 394.564 45.7008 392.969Z" fill="#F5F6F7"/>
<path d="M23.109 371.52C22.5481 369.539 21.9849 367.557 21.4261 365.576C23.2564 365.611 25.0886 365.644 26.9189 365.679C26.3029 367.632 25.6871 369.585 25.0711 371.54C24.4157 371.533 23.7623 371.527 23.109 371.52Z" fill="#F5F6F7"/>
<path d="M68.2641 380.458C66.6604 381.985 65.6858 383.623 64.4297 383.878C63.4267 384.083 62.0804 382.6 60.8881 381.868C61.8341 380.392 62.7776 378.917 63.7214 377.441C65.0237 378.305 66.3283 379.172 68.2641 380.458Z" fill="#F5F6F7"/>
<path d="M31.2132 421.188C27.753 422.655 26.0195 424.084 24.7414 423.754C23.217 423.361 22.0839 421.458 20.7817 420.211C21.9079 419.286 22.9639 417.744 24.1805 417.605C25.3573 417.469 26.6971 418.78 31.2132 421.188Z" fill="#F5F6F7"/>
<path d="M78.0792 521.442C78.684 523.412 79.2891 525.383 79.8963 527.353C78.0595 527.369 76.2247 527.386 74.3901 527.404C74.973 525.392 75.5561 523.379 76.1412 521.367C76.788 521.393 77.4325 521.418 78.0792 521.442Z" fill="#F5F6F7"/>
<path d="M54.3833 446.587C52.6036 448.049 51.4093 449.775 50.3997 449.672C49.0952 449.538 47.9358 447.946 46.7171 446.98C47.982 445.698 49.0929 444.126 50.6107 443.316C51.0484 443.083 52.6565 445.047 54.3833 446.587Z" fill="#F5F6F7"/>
<path d="M99.8507 447.526C101.523 445.507 102.436 444.403 103.349 443.299C104.294 444.379 105.662 445.331 106.039 446.582C106.285 447.396 105.062 449.536 104.538 449.523C103.274 449.488 102.035 448.54 99.8507 447.526Z" fill="#F5F6F7"/>
<path d="M141.558 481.699C143.76 483.511 145.041 484.294 145.844 485.418C146.035 485.689 144.339 487.932 144.048 487.824C142.471 487.237 140.962 486.311 139.7 485.196C139.506 485.024 140.703 483.274 141.558 481.699Z" fill="#F5F6F7"/>
<path d="M117.48 481.776C118.971 483.742 119.824 484.866 120.678 485.992C119.371 486.683 118.115 487.734 116.738 487.921C116.008 488.02 114.242 486.294 114.374 485.97C114.88 484.721 115.962 483.705 117.48 481.776Z" fill="#F5F6F7"/>
<path d="M102.785 416.857C104.38 418.379 105.828 419.133 105.837 419.901C105.85 421.372 105.047 422.85 104.582 424.326C103.467 423.488 101.729 422.835 101.408 421.759C101.069 420.629 102.086 419.094 102.785 416.857Z" fill="#F5F6F7"/>
<path d="M102.937 467.42C104.479 469.071 105.841 469.876 105.825 470.655C105.797 472.115 104.972 473.56 104.477 475.012C103.372 474.13 101.632 473.419 101.34 472.322C101.034 471.183 102.132 469.67 102.937 467.42Z" fill="#F5F6F7"/>
<path d="M99.8551 500.43C101.516 498.438 102.301 497.158 103.432 496.371C103.713 496.175 105.836 497.574 105.836 498.24C105.838 499.696 105.02 501.154 104.536 502.612C103.285 502.029 102.031 501.444 99.8551 500.43Z" fill="#F5F6F7"/>
<path d="M104.752 521.327C105.196 522.71 106.243 524.27 105.904 525.424C105.592 526.495 103.799 527.131 102.658 527.96C102.209 526.484 101.507 525.028 101.39 523.526C101.296 522.312 101.903 521.041 102.2 519.796C103.051 520.307 103.902 520.817 104.752 521.327Z" fill="#F5F6F7"/>
<path d="M172.884 486.859C171.726 487.228 170.541 487.961 169.414 487.879C167.91 487.769 166.451 487.03 164.973 486.562C165.805 485.44 166.451 483.683 167.52 483.371C168.66 483.039 170.197 484.07 171.563 484.506C172.003 485.291 172.444 486.076 172.884 486.859Z" fill="#F5F6F7"/>
<path d="M169.322 535.466C170.217 536.966 170.783 537.909 171.346 538.855C170.09 539.592 168.726 541.026 167.608 540.859C166.564 540.7 165.78 538.835 164.881 537.723C166.251 537.025 167.624 536.328 169.322 535.466Z" fill="#F5F6F7"/>
</g>
</svg>
