<svg width="727" height="321" viewBox="0 0 727 321" fill="none" xmlns="http://www.w3.org/2000/svg">
<g opacity="0.05" clip-path="url(#clip0_9747_2551)">
<path d="M431.466 -123.299L433.436 -123.759L433.874 -121.784L454.778 -27.5339L596.319 -250.166L378.14 -373.058L400.472 -272.374L400.827 -270.77L399.323 -270.11C239.077 -199.742 149.806 -132.752 105.83 -72.0407C61.9719 -11.4915 63.1248 42.8559 83.9623 88.5214C104.88 134.363 145.724 171.623 181.518 197.482C199.391 210.394 215.951 220.425 228.04 227.226C230.506 228.613 232.784 229.866 234.85 230.981C179.32 178.179 153.233 132.134 147.966 92.0507C142.356 49.3576 160.415 13.8845 190.665 -15.2236C220.874 -44.2918 263.364 -67.1528 307.073 -84.8092C350.809 -102.477 395.913 -114.991 431.466 -123.299Z" stroke="white" stroke-width="4"/>
<path d="M465.069 138.352L443.118 39.3817L297.852 267.874L521.773 394.001L498.471 288.945C1139.92 7.2695 650.138 -222.382 650.138 -222.382C901.052 4.92934 607.046 105.178 465.069 138.352Z" stroke="white" stroke-width="4" stroke-miterlimit="10"/>
</g>
<defs>
<clipPath id="clip0_9747_2551">
<rect width="727" height="321" fill="white"/>
</clipPath>
</defs>
</svg>
