<svg width="2563" height="726" viewBox="0 0 2563 726" fill="none" xmlns="http://www.w3.org/2000/svg">
<path d="M4.57764e-05 0H149.333V56.7293H4.57764e-05V0Z" fill="#151A26"/>
<path d="M482.199 390.491H538.928V538.928H482.199V390.491Z" fill="#151A26"/>
<rect x="482.199" y="56.7293" width="56.7293" height="266.628" fill="#151A26"/>
<rect x="215.571" width="323.357" height="56.7293" fill="#151A26"/>
<rect x="56.7292" y="668.271" width="266.628" height="56.7293" fill="#151A26"/>
<rect y="401.643" width="56.7293" height="323.357" fill="#151A26"/>
<path d="M538.928 725L389.595 725L389.595 668.271L538.928 668.271L538.928 725Z" fill="#151A26"/>
<path d="M56.7293 334.509L0 334.509L-1.29767e-05 186.072L56.7292 186.072L56.7293 334.509Z" fill="#151A26"/>
<path d="M966.4 15.6L775.6 261.2V184.8L906 15.6H966.4ZM787.6 15.6V308H736.4V15.6H787.6ZM834 180L866.8 136L967.6 308H908.4L834 180ZM1062.73 308H1009.93L1115.53 15.6H1167.93L1273.53 308H1219.53L1195.93 240.4H1086.73L1062.73 308ZM1135.13 102.8L1101.53 197.2H1181.13L1147.53 102.8C1146.46 98.8 1145.26 94.8 1143.93 90.8C1142.6 86.8 1141.8 83.3333 1141.53 80.4C1141 83.0667 1140.06 86.5333 1138.73 90.8C1137.66 94.8 1136.46 98.8 1135.13 102.8ZM1392.6 308H1342.2V15.6H1393L1545 245.6H1530.2V15.6H1580.6V308H1530.2L1377.8 78.4H1392.6V308ZM1728.52 15.6V308H1677.32V15.6H1728.52ZM1793.32 183.6H1712.92V140.4H1790.52C1804.66 140.4 1815.46 136.933 1822.92 130C1830.39 122.8 1834.12 112.667 1834.12 99.6C1834.12 87.0667 1830.26 77.4667 1822.52 70.8C1814.79 64.1333 1803.59 60.8 1788.92 60.8H1711.32V15.6H1793.32C1822.39 15.6 1845.19 22.6667 1861.72 36.8C1878.26 50.9333 1886.52 70.2667 1886.52 94.8C1886.52 112.4 1882.26 127.2 1873.72 139.2C1865.19 150.933 1852.52 159.467 1835.72 164.8V159.2C1853.86 163.467 1867.59 171.467 1876.92 183.2C1886.26 194.933 1890.92 210.133 1890.92 228.8C1890.92 245.333 1887.19 259.6 1879.72 271.6C1872.26 283.333 1861.32 292.4 1846.92 298.8C1832.79 304.933 1815.72 308 1795.72 308H1711.32V262.8H1793.32C1807.99 262.8 1819.19 259.333 1826.92 252.4C1834.66 245.467 1838.52 235.467 1838.52 222.4C1838.52 210.133 1834.52 200.667 1826.52 194C1818.79 187.067 1807.72 183.6 1793.32 183.6ZM1990.76 308H1937.96L2043.56 15.6H2095.96L2201.56 308H2147.56L2123.96 240.4H2014.76L1990.76 308ZM2063.16 102.8L2029.56 197.2H2109.16L2075.56 102.8C2074.5 98.8 2073.3 94.8 2071.96 90.8C2070.63 86.8 2069.83 83.3333 2069.56 80.4C2069.03 83.0667 2068.1 86.5333 2066.76 90.8C2065.7 94.8 2064.5 98.8 2063.16 102.8ZM2320.63 308H2270.23V15.6H2321.03L2473.03 245.6H2458.23V15.6H2508.63V308H2458.23L2305.83 78.4H2320.63V308Z" fill="#1E92EB"/>
<path d="M1573.6 433.6V726H1522.4V433.6H1573.6ZM1703.2 480.8H1526.4V433.6H1703.2V480.8ZM1682.4 606.4H1525.6V560.4H1682.4V606.4ZM1832.55 726H1781.35V433.6H1892.95C1926.02 433.6 1951.75 441.6 1970.15 457.6C1988.82 473.6 1998.15 496 1998.15 524.8C1998.15 544.267 1993.62 560.933 1984.55 574.8C1975.75 588.4 1962.69 598.8 1945.35 606L2000.95 726H1944.95L1895.35 616.8H1832.55V726ZM1832.55 479.2V571.6H1892.95C1909.22 571.6 1921.89 567.467 1930.95 559.2C1940.02 550.933 1944.55 539.467 1944.55 524.8C1944.55 510.133 1940.02 498.933 1930.95 491.2C1921.89 483.2 1909.22 479.2 1892.95 479.2H1832.55ZM2262.92 726H2081.32V433.6H2262.92V480.8H2114.52L2132.52 464.4V556H2249.32V601.2H2132.52V695.2L2114.52 678.8H2262.92V726ZM2531.64 726H2350.04V433.6H2531.64V480.8H2383.24L2401.24 464.4V556H2518.04V601.2H2401.24V695.2L2383.24 678.8H2531.64V726Z" fill="#151A26"/>
</svg>
