<svg width="2563" height="731" viewBox="0 0 2563 731" fill="none" xmlns="http://www.w3.org/2000/svg">
<path d="M4.57764e-05 0H149.333V56.7293H4.57764e-05V0Z" fill="#151A26"/>
<path d="M482.199 390.491H538.928V538.928H482.199V390.491Z" fill="#151A26"/>
<rect x="482.199" y="56.7293" width="56.7293" height="266.628" fill="#151A26"/>
<rect x="215.571" width="323.357" height="56.7293" fill="#151A26"/>
<rect x="56.7292" y="668.271" width="266.628" height="56.7293" fill="#151A26"/>
<rect y="401.643" width="56.7293" height="323.357" fill="#151A26"/>
<path d="M538.928 725L389.595 725L389.595 668.271L538.928 668.271L538.928 725Z" fill="#151A26"/>
<path d="M56.7293 334.509L0 334.509L-1.29767e-05 186.072L56.7292 186.072L56.7293 334.509Z" fill="#151A26"/>
<path d="M966.4 15.6L775.6 261.2V184.8L906 15.6H966.4ZM787.6 15.6V308H736.4V15.6H787.6ZM834 180L866.8 136L967.6 308H908.4L834 180ZM1062.73 308H1009.93L1115.53 15.6H1167.93L1273.53 308H1219.53L1195.93 240.4H1086.73L1062.73 308ZM1135.13 102.8L1101.53 197.2H1181.13L1147.53 102.8C1146.46 98.8 1145.26 94.8 1143.93 90.8C1142.6 86.8 1141.8 83.3333 1141.53 80.4C1141 83.0667 1140.06 86.5333 1138.73 90.8C1137.66 94.8 1136.46 98.8 1135.13 102.8ZM1392.6 308H1342.2V15.6H1393L1545 245.6H1530.2V15.6H1580.6V308H1530.2L1377.8 78.4H1392.6V308ZM1728.52 15.6V308H1677.32V15.6H1728.52ZM1793.32 183.6H1712.92V140.4H1790.52C1804.66 140.4 1815.46 136.933 1822.92 130C1830.39 122.8 1834.12 112.667 1834.12 99.6C1834.12 87.0667 1830.26 77.4667 1822.52 70.8C1814.79 64.1333 1803.59 60.8 1788.92 60.8H1711.32V15.6H1793.32C1822.39 15.6 1845.19 22.6667 1861.72 36.8C1878.26 50.9333 1886.52 70.2667 1886.52 94.8C1886.52 112.4 1882.26 127.2 1873.72 139.2C1865.19 150.933 1852.52 159.467 1835.72 164.8V159.2C1853.86 163.467 1867.59 171.467 1876.92 183.2C1886.26 194.933 1890.92 210.133 1890.92 228.8C1890.92 245.333 1887.19 259.6 1879.72 271.6C1872.26 283.333 1861.32 292.4 1846.92 298.8C1832.79 304.933 1815.72 308 1795.72 308H1711.32V262.8H1793.32C1807.99 262.8 1819.19 259.333 1826.92 252.4C1834.66 245.467 1838.52 235.467 1838.52 222.4C1838.52 210.133 1834.52 200.667 1826.52 194C1818.79 187.067 1807.72 183.6 1793.32 183.6ZM1990.76 308H1937.96L2043.56 15.6H2095.96L2201.56 308H2147.56L2123.96 240.4H2014.76L1990.76 308ZM2063.16 102.8L2029.56 197.2H2109.16L2075.56 102.8C2074.5 98.8 2073.3 94.8 2071.96 90.8C2070.63 86.8 2069.83 83.3333 2069.56 80.4C2069.03 83.0667 2068.1 86.5333 2066.76 90.8C2065.7 94.8 2064.5 98.8 2063.16 102.8ZM2320.63 308H2270.23V15.6H2321.03L2473.03 245.6H2458.23V15.6H2508.63V308H2458.23L2305.83 78.4H2320.63V308Z" fill="#1E92EB"/>
<path d="M1727.6 433.6V726H1676.4V433.6H1727.6ZM1792 625.2H1715.2V579.6H1781.2C1798.8 579.6 1812.13 575.2 1821.2 566.4C1830.53 557.333 1835.2 544.8 1835.2 528.8C1835.2 512.8 1830.53 500.533 1821.2 492C1812.13 483.467 1799.07 479.2 1782 479.2H1710.4V433.6H1792C1811.73 433.6 1828.8 437.6 1843.2 445.6C1857.6 453.6 1868.8 464.8 1876.8 479.2C1884.8 493.333 1888.8 510 1888.8 529.2C1888.8 547.867 1884.8 564.533 1876.8 579.2C1868.8 593.6 1857.6 604.933 1843.2 613.2C1828.8 621.2 1811.73 625.2 1792 625.2ZM2015.07 726H1963.87V433.6H2075.47C2108.54 433.6 2134.27 441.6 2152.67 457.6C2171.34 473.6 2180.67 496 2180.67 524.8C2180.67 544.267 2176.14 560.933 2167.07 574.8C2158.27 588.4 2145.2 598.8 2127.87 606L2183.47 726H2127.47L2077.87 616.8H2015.07V726ZM2015.07 479.2V571.6H2075.47C2091.74 571.6 2104.4 567.467 2113.47 559.2C2122.54 550.933 2127.07 539.467 2127.07 524.8C2127.07 510.133 2122.54 498.933 2113.47 491.2C2104.4 483.2 2091.74 479.2 2075.47 479.2H2015.07ZM2529.46 579.6C2529.46 609.2 2523.46 635.467 2511.46 658.4C2499.46 681.067 2482.79 698.8 2461.46 711.6C2440.12 724.4 2415.46 730.8 2387.46 730.8C2359.72 730.8 2335.19 724.4 2313.86 711.6C2292.52 698.8 2275.86 681.067 2263.86 658.4C2252.12 635.733 2246.26 609.6 2246.26 580C2246.26 550.133 2252.26 523.867 2264.26 501.2C2276.26 478.267 2292.79 460.4 2313.86 447.6C2335.19 434.8 2359.86 428.4 2387.86 428.4C2415.86 428.4 2440.39 434.8 2461.46 447.6C2482.79 460.4 2499.46 478.133 2511.46 500.8C2523.46 523.467 2529.46 549.733 2529.46 579.6ZM2475.86 579.6C2475.86 558.8 2472.26 540.8 2465.06 525.6C2457.86 510.4 2447.72 498.667 2434.66 490.4C2421.59 481.867 2405.99 477.6 2387.86 477.6C2369.99 477.6 2354.39 481.867 2341.06 490.4C2327.99 498.667 2317.86 510.4 2310.66 525.6C2303.46 540.8 2299.86 558.8 2299.86 579.6C2299.86 600.4 2303.46 618.533 2310.66 634C2317.86 649.2 2327.99 660.933 2341.06 669.2C2354.39 677.467 2369.99 681.6 2387.86 681.6C2405.99 681.6 2421.59 677.467 2434.66 669.2C2447.72 660.667 2457.86 648.8 2465.06 633.6C2472.26 618.133 2475.86 600.133 2475.86 579.6Z" fill="#151A26"/>
</svg>
