<svg width="1218" height="14" viewBox="0 0 1218 14" fill="none" xmlns="http://www.w3.org/2000/svg">
<line x1="1.29289" y1="13.2929" x2="13.2929" y2="1.29289" stroke="#D0D5DD" stroke-width="2"/>
<line x1="41.4262" y1="13.2929" x2="53.4262" y2="1.29289" stroke="#D0D5DD" stroke-width="2"/>
<line x1="81.5596" y1="13.2929" x2="93.5596" y2="1.29289" stroke="#D0D5DD" stroke-width="2"/>
<line x1="121.693" y1="13.2929" x2="133.693" y2="1.29289" stroke="#D0D5DD" stroke-width="2"/>
<line x1="161.826" y1="13.2929" x2="173.826" y2="1.29289" stroke="#D0D5DD" stroke-width="2"/>
<line x1="201.96" y1="13.2929" x2="213.96" y2="1.29289" stroke="#D0D5DD" stroke-width="2"/>
<line x1="242.093" y1="13.2929" x2="254.093" y2="1.29289" stroke="#D0D5DD" stroke-width="2"/>
<line x1="282.226" y1="13.2929" x2="294.226" y2="1.29289" stroke="#D0D5DD" stroke-width="2"/>
<line x1="322.36" y1="13.2929" x2="334.36" y2="1.29289" stroke="#D0D5DD" stroke-width="2"/>
<line x1="362.493" y1="13.2929" x2="374.493" y2="1.29289" stroke="#D0D5DD" stroke-width="2"/>
<line x1="402.626" y1="13.2929" x2="414.626" y2="1.29289" stroke="#D0D5DD" stroke-width="2"/>
<line x1="442.76" y1="13.2929" x2="454.76" y2="1.29289" stroke="#D0D5DD" stroke-width="2"/>
<line x1="482.893" y1="13.2929" x2="494.893" y2="1.29289" stroke="#D0D5DD" stroke-width="2"/>
<line x1="523.026" y1="13.2929" x2="535.026" y2="1.29289" stroke="#D0D5DD" stroke-width="2"/>
<line x1="563.159" y1="13.2929" x2="575.159" y2="1.29289" stroke="#D0D5DD" stroke-width="2"/>
<line x1="603.293" y1="13.2929" x2="615.293" y2="1.29289" stroke="#D0D5DD" stroke-width="2"/>
<line x1="643.426" y1="13.2929" x2="655.426" y2="1.29289" stroke="#D0D5DD" stroke-width="2"/>
<line x1="683.559" y1="13.2929" x2="695.559" y2="1.29289" stroke="#D0D5DD" stroke-width="2"/>
<line x1="723.693" y1="13.2929" x2="735.693" y2="1.29289" stroke="#D0D5DD" stroke-width="2"/>
<line x1="763.826" y1="13.2929" x2="775.826" y2="1.29289" stroke="#D0D5DD" stroke-width="2"/>
<line x1="803.959" y1="13.2929" x2="815.959" y2="1.29289" stroke="#D0D5DD" stroke-width="2"/>
<line x1="844.093" y1="13.2929" x2="856.093" y2="1.29289" stroke="#D0D5DD" stroke-width="2"/>
<line x1="884.226" y1="13.2929" x2="896.226" y2="1.29289" stroke="#D0D5DD" stroke-width="2"/>
<line x1="924.359" y1="13.2929" x2="936.359" y2="1.29289" stroke="#D0D5DD" stroke-width="2"/>
<line x1="964.492" y1="13.2929" x2="976.492" y2="1.29289" stroke="#D0D5DD" stroke-width="2"/>
<line x1="1004.63" y1="13.2929" x2="1016.63" y2="1.29289" stroke="#D0D5DD" stroke-width="2"/>
<line x1="1044.76" y1="13.2929" x2="1056.76" y2="1.29289" stroke="#D0D5DD" stroke-width="2"/>
<line x1="1084.89" y1="13.2929" x2="1096.89" y2="1.29289" stroke="#D0D5DD" stroke-width="2"/>
<line x1="1125.03" y1="13.2929" x2="1137.03" y2="1.29289" stroke="#D0D5DD" stroke-width="2"/>
<line x1="1165.16" y1="13.2929" x2="1177.16" y2="1.29289" stroke="#D0D5DD" stroke-width="2"/>
<line x1="1205.29" y1="13.2929" x2="1217.29" y2="1.29289" stroke="#D0D5DD" stroke-width="2"/>
</svg>
