<svg width="88" height="57" viewBox="0 0 88 57" fill="none" xmlns="http://www.w3.org/2000/svg">
<g clip-path="url(#clip0_9973_12488)">
<path d="M86.0694 23.6174C86.0694 34.4566 74.0139 43.3707 58.5139 44.5564C56.8194 47.7929 51.6944 52.4243 44.5694 53.7914C47.6111 51.0293 50.3889 47.2628 49.8611 44.403C35.125 42.7429 23.875 34.0939 23.875 23.6313C23.875 11.983 37.7917 2.53882 54.9722 2.53882C72.1528 2.53882 86.0694 11.983 86.0694 23.6313V23.6174Z" stroke="#00AEEF" stroke-width="2.79" stroke-miterlimit="10"/>
<path d="M50.6112 18.8186H16.0557V30.1182H50.6112V18.8186Z" fill="#FFF200"/>
<path d="M38.3471 18.8186H29.3193V29.1277H38.3471V18.8186Z" fill="#ED1C24"/>
<path d="M52.0553 18.177H41.7637V28.514H52.0553V18.177Z" fill="#7F3F98"/>
<path d="M66.9167 22.6968C66.9167 34.359 53.9444 43.9427 37.2639 45.2261C35.4444 48.7137 29.9306 53.6938 22.2639 55.1586C25.5278 52.1733 28.5278 48.1278 27.9583 45.0448C12.1111 43.2731 0 33.9545 0 22.6968C0 10.1557 14.9861 0 33.4583 0C51.9306 0 66.9167 10.1557 66.9167 22.6968ZM20.4444 19.279C18.1667 19.279 16.3056 21.1344 16.3056 23.4361C16.3056 25.7379 18.1528 27.5932 20.4444 27.5932C22.7361 27.5932 24.5833 25.7379 24.5833 23.4361C24.5833 21.1344 22.7361 19.279 20.4444 19.279ZM33.4583 19.279C31.1806 19.279 29.3194 21.1344 29.3194 23.4361C29.3194 25.7379 31.1667 27.5932 33.4583 27.5932C35.75 27.5932 37.5972 25.7379 37.5972 23.4361C37.5972 21.1344 35.75 19.279 33.4583 19.279ZM46.4722 19.279C44.1944 19.279 42.3333 21.1344 42.3333 23.4361C42.3333 25.7379 44.1806 27.5932 46.4722 27.5932C48.7639 27.5932 50.6111 25.7379 50.6111 23.4361C50.6111 21.1344 48.7639 19.279 46.4722 19.279Z" fill="#00AEEF"/>
</g>
<defs>
<clipPath id="clip0_9973_12488">
<rect width="88" height="57" fill="white"/>
</clipPath>
</defs>
</svg>
