<svg width="66" height="68" viewBox="0 0 66 68" fill="none" xmlns="http://www.w3.org/2000/svg">
<path d="M65.1639 15.7677C64.141 11.9975 60.6922 9.17716 56.5859 9.17716H50.5944V6.31296C50.5944 2.83499 47.7594 0 44.2669 0C40.7743 0 37.9539 2.83499 37.9539 6.31296V9.17716H26.6871V6.31296C26.6871 2.83499 23.8521 0 20.3595 0C16.8669 0 14.0319 2.83499 14.0319 6.31296V9.17716H9.44335C4.51866 9.17716 0.5 13.2104 0.5 18.1205V58.4678C0.5 62.9833 3.89029 66.7097 8.24506 67.2796C9.26799 67.3966 22.0985 67.3966 23.4283 67.3966C28.4407 67.3966 56.5567 67.4112 56.5567 67.4112C61.4667 67.4112 65.5 63.3925 65.5 58.4678V20.371C65.5 18.4712 65.2808 16.25 65.1347 15.7824L65.1639 15.7677ZM41.4903 6.31296C41.4903 4.76395 42.7325 3.50719 44.2815 3.50719C45.8305 3.50719 47.0872 4.76395 47.0872 6.31296V13.152C47.0872 14.701 45.8305 15.9577 44.2815 15.9577C42.7325 15.9577 41.4903 14.701 41.4903 13.152V6.31296ZM17.5683 6.31296C17.5683 4.76395 18.8397 3.50719 20.3741 3.50719C21.9085 3.50719 23.1652 4.76395 23.1652 6.31296V13.152C23.1652 14.701 21.9085 15.9577 20.3741 15.9577C18.8397 15.9577 17.5683 14.701 17.5683 13.152V6.31296ZM61.8175 58.4678C61.8175 61.3613 59.4647 63.6994 56.6005 63.6994H9.45796C6.56452 63.6994 4.2264 61.3613 4.2264 58.4678V24.7257C5.70234 25.7925 7.49977 26.4501 9.45796 26.4501H56.5859C58.5441 26.4501 60.3415 25.8071 61.8175 24.7257V58.4825V58.4678Z" fill="#00AEEF"/>
<path d="M50.5652 56.5057C52.8734 56.5057 54.7446 54.6345 54.7446 52.3263C54.7446 50.0181 52.8734 48.1469 50.5652 48.1469C48.2569 48.1469 46.3857 50.0181 46.3857 52.3263C46.3857 54.6345 48.2569 56.5057 50.5652 56.5057Z" fill="#808285"/>
<path d="M14.0749 56.4764C16.3831 56.4764 18.2543 54.6052 18.2543 52.2969C18.2543 49.9887 16.3831 48.1176 14.0749 48.1176C11.7667 48.1176 9.89551 49.9887 9.89551 52.2969C9.89551 54.6052 11.7667 56.4764 14.0749 56.4764Z" fill="#009444"/>
<path d="M32.1823 56.4764C34.4906 56.4764 36.3617 54.6052 36.3617 52.2969C36.3617 49.9887 34.4906 48.1176 32.1823 48.1176C29.8741 48.1176 28.0029 49.9887 28.0029 52.2969C28.0029 54.6052 29.8741 56.4764 32.1823 56.4764Z" fill="#009444"/>
<path d="M13.8415 42.4478C16.1497 42.4478 18.0209 40.5766 18.0209 38.2684C18.0209 35.9602 16.1497 34.089 13.8415 34.089C11.5333 34.089 9.66211 35.9602 9.66211 38.2684C9.66211 40.5766 11.5333 42.4478 13.8415 42.4478Z" fill="#7F3F98"/>
<path d="M31.948 42.4478C34.2562 42.4478 36.1274 40.5766 36.1274 38.2684C36.1274 35.9602 34.2562 34.089 31.948 34.089C29.6397 34.089 27.7686 35.9602 27.7686 38.2684C27.7686 40.5766 29.6397 42.4478 31.948 42.4478Z" fill="#ED1C24"/>
<path d="M50.3318 42.477C52.64 42.477 54.5112 40.6058 54.5112 38.2976C54.5112 35.9894 52.64 34.1182 50.3318 34.1182C48.0235 34.1182 46.1523 35.9894 46.1523 38.2976C46.1523 40.6058 48.0235 42.477 50.3318 42.477Z" fill="#009444"/>
</svg>
