<svg width="70" height="66" viewBox="0 0 70 66" fill="none" xmlns="http://www.w3.org/2000/svg">
<g clip-path="url(#clip0_9973_12511)">
<path d="M64.2512 0H5.74879C2.57649 0 0 2.57561 0 5.74683V46.6668C0 49.838 2.57649 52.4137 5.74879 52.4137H28.2931V58.8688H23.0596C20.8857 58.8688 19.0982 60.4624 19.0982 62.4263C19.0982 64.3902 20.8696 65.9839 23.0596 65.9839H46.9565C49.1304 65.9839 50.9179 64.3902 50.9179 62.4263C50.9179 60.4624 49.1465 58.8688 46.9565 58.8688H41.723V52.4137H64.2673C67.4396 52.4137 70.0161 49.838 70.0161 46.6668V5.74683C70.0161 2.57561 67.4396 0 64.2673 0H64.2512ZM62.7858 43.5278C62.7858 44.8478 61.723 45.9102 60.4026 45.9102H9.59742C8.27697 45.9102 7.21417 44.8478 7.21417 43.5278V8.88585C7.21417 7.56585 8.27697 6.50341 9.59742 6.50341H60.4026C61.723 6.50341 62.7858 7.56585 62.7858 8.88585V43.5278Z" fill="#00AEEF"/>
<path d="M23.2207 31.3741C26.1734 31.3741 28.5669 28.9813 28.5669 26.0297C28.5669 23.0781 26.1734 20.6853 23.2207 20.6853C20.2681 20.6853 17.8745 23.0781 17.8745 26.0297C17.8745 28.9813 20.2681 31.3741 23.2207 31.3741Z" fill="#7F3F98"/>
<path d="M46.7793 31.4063C49.732 31.4063 52.1255 29.0135 52.1255 26.0619C52.1255 23.1103 49.732 20.7175 46.7793 20.7175C43.8267 20.7175 41.4331 23.1103 41.4331 26.0619C41.4331 29.0135 43.8267 31.4063 46.7793 31.4063Z" fill="#009444"/>
</g>
<defs>
<clipPath id="clip0_9973_12511">
<rect width="70" height="66" fill="white"/>
</clipPath>
</defs>
</svg>
