<svg width="83" height="73" viewBox="0 0 83 73" fill="none" xmlns="http://www.w3.org/2000/svg">
<path d="M41.1997 0.387817C30.1628 0.387817 21.894 7.81038 25.4025 21.0687C28.9815 34.5563 33.689 39.5987 41.1997 51.7463C47.8113 39.8103 53.4531 34.0803 56.9969 21.0687C60.5936 7.82801 52.1132 0.387817 41.1997 0.387817ZM41.1997 27.8919C34.9408 27.8919 29.8807 22.8318 29.8807 16.5729C29.8807 10.3139 34.9408 5.25391 41.1997 5.25391C47.4586 5.25391 52.5187 10.3139 52.5187 16.5729C52.5187 22.8318 47.4586 27.8919 41.1997 27.8919Z" fill="#00AEEF"/>
<path d="M41.1982 23.2549C44.8886 23.2549 47.8803 20.2632 47.8803 16.5728C47.8803 12.8824 44.8886 9.89075 41.1982 9.89075C37.5078 9.89075 34.5161 12.8824 34.5161 16.5728C34.5161 20.2632 37.5078 23.2549 41.1982 23.2549Z" fill="#00AEEF"/>
<path d="M11.3685 58.0757C15.1368 58.0757 18.1917 55.0209 18.1917 51.2526C18.1917 47.4843 15.1368 44.4294 11.3685 44.4294C7.60023 44.4294 4.54541 47.4843 4.54541 51.2526C4.54541 55.0209 7.60023 58.0757 11.3685 58.0757Z" fill="#7F3F98"/>
<path d="M41.2015 72.1803C44.9698 72.1803 48.0247 69.1255 48.0247 65.3572C48.0247 61.5889 44.9698 58.5341 41.2015 58.5341C37.4332 58.5341 34.3784 61.5889 34.3784 65.3572C34.3784 69.1255 37.4332 72.1803 41.2015 72.1803Z" fill="#ED1C24"/>
<path d="M71.0497 58.1288C74.818 58.1288 77.8728 55.074 77.8728 51.3057C77.8728 47.5374 74.818 44.4825 71.0497 44.4825C67.2814 44.4825 64.2266 47.5374 64.2266 51.3057C64.2266 55.074 67.2814 58.1288 71.0497 58.1288Z" fill="#009444"/>
<path d="M71.0322 0C63.4862 0 57.8091 5.07767 60.2245 14.1575C62.6752 23.3961 65.9017 26.8517 71.0322 35.1735C75.5634 27.0104 79.4245 23.0787 81.8399 14.1575C84.2906 5.0953 78.4901 0 71.0322 0ZM71.0499 18.8297C66.7656 18.8297 63.2923 15.3564 63.2923 11.0721C63.2923 6.78786 66.7656 3.31457 71.0499 3.31457C75.3341 3.31457 78.8074 6.78786 78.8074 11.0721C78.8074 15.3564 75.3341 18.8297 71.0499 18.8297Z" fill="#00AEEF"/>
<path d="M71.0493 14.6513C73.5712 14.6513 75.6157 12.6069 75.6157 10.085C75.6157 7.56301 73.5712 5.51855 71.0493 5.51855C68.5273 5.51855 66.4829 7.56301 66.4829 10.085C66.4829 12.6069 68.5273 14.6513 71.0493 14.6513Z" fill="#00AEEF"/>
<path d="M11.3711 0.246704C3.82511 0.246704 -1.85201 5.32437 0.563411 14.4042C3.01409 23.6428 6.24053 27.0984 11.3711 35.4202C15.9022 27.2571 19.7634 23.3254 22.1788 14.4042C24.6295 5.34201 18.8289 0.246704 11.3711 0.246704ZM11.3711 19.094C7.08681 19.094 3.61353 15.6208 3.61353 11.3365C3.61353 7.05218 7.08681 3.57893 11.3711 3.57893C15.6554 3.57893 19.1286 7.05218 19.1286 11.3365C19.1286 15.6208 15.6554 19.094 11.3711 19.094Z" fill="#00AEEF"/>
<path d="M11.3701 15.9028C13.892 15.9028 15.9365 13.8583 15.9365 11.3364C15.9365 8.81445 13.892 6.77002 11.3701 6.77002C8.84814 6.77002 6.80371 8.81445 6.80371 11.3364C6.80371 13.8583 8.84814 15.9028 11.3701 15.9028Z" fill="#00AEEF"/>
</svg>
