<svg width="21" height="20" viewBox="0 0 21 20" fill="none" xmlns="http://www.w3.org/2000/svg">
<g clip-path="url(#clip0_9747_2527)">
<path d="M20.9883 10C20.9883 4.47715 16.5111 0 10.9883 0C5.46543 0 0.988281 4.47715 0.988281 10C0.988281 14.9912 4.64512 19.1283 9.42578 19.8785V12.8906H6.88672V10H9.42578V7.79688C9.42578 5.29063 10.9188 3.90625 13.2029 3.90625C14.2967 3.90625 15.4414 4.10156 15.4414 4.10156V6.5625H14.1805C12.9383 6.5625 12.5508 7.3334 12.5508 8.125V10H15.3242L14.8809 12.8906H12.5508V19.8785C17.3314 19.1283 20.9883 14.9912 20.9883 10Z" fill="#98A2B3"/>
</g>
<defs>
<clipPath id="clip0_9747_2527">
<rect width="20" height="20" fill="white" transform="translate(0.988281)"/>
</clipPath>
</defs>
</svg>
