<svg width="60" height="60" viewBox="0 0 60 60" fill="none" xmlns="http://www.w3.org/2000/svg">
<g clip-path="url(#clip0_9999_1459)">
<path d="M19.043 0C8.52609 0 0 8 0 17.8633C0 27.7266 8.52609 35.7266 19.043 35.7266C21.1421 35.7266 23.1618 35.4101 25.0517 34.8201C27.1868 36.9352 28.3698 37.6906 32.2361 39.7698L32.2722 30.7122C35.8572 27.4676 38.0861 22.9137 38.0861 17.8705C38.0933 8 29.5672 0 19.043 0Z" fill="#00AEEF"/>
<path d="M52.5559 19.9784C49.4614 17.4748 44.1741 14.8201 36.5352 16.4245L37.1267 19.2374C43.6547 17.8705 48.1342 20.1007 50.7382 22.2086C54.6694 25.3885 57.1147 30.554 57.1147 35.6906C57.1147 44.7482 49.2162 52.1151 39.5143 52.1151C37.61 52.1151 35.7274 51.8345 33.9385 51.2734L33.1089 51.0144L32.3732 51.741C30.6348 53.4676 30.303 53.7914 27.7495 55.1799L27.7206 47.8921L27.2518 47.4676C24.2078 44.7122 21.9139 38.8705 21.9139 33.8921H19.0286C19.0286 38.6763 21.0267 45.3165 24.8425 49.1511L24.8858 60L28.0019 58.3165C31.5509 56.4101 32.1424 56 33.924 54.259C35.7418 54.741 37.6172 54.9856 39.5215 54.9856C50.8175 54.9856 60.0072 46.3309 60.0072 35.6835C60.0072 29.705 57.158 23.6835 52.5631 19.9712L52.5559 19.9784Z" fill="#00AEEF"/>
<path d="M17.7158 19.964L17.6653 19.3165C17.5427 18.0288 17.9899 16.6619 19.1584 15.2446C20.1034 14.1295 20.7237 13.259 20.7237 12.2878C20.7237 11.2446 20.0745 10.5468 18.6824 10.5252C17.8096 10.5252 16.8141 10.7986 16.1938 11.2734L15.4436 9.08633C16.338 8.51798 17.7807 8.06475 19.3532 8.06475C22.4405 8.06475 23.8615 9.85611 23.8615 11.8417C23.8615 13.6259 22.7651 14.8705 21.6975 16.0863C20.7237 17.2302 20.327 18.2446 20.3775 19.4388L20.3991 19.9568H17.7086L17.7158 19.964ZM17.0882 23.4173C17.0882 22.2734 17.8817 21.482 18.9781 21.482C20.0745 21.482 20.8463 22.2734 20.868 23.4173C20.868 24.5108 20.1178 25.3525 18.9781 25.3525C17.8384 25.3525 17.0882 24.5108 17.0882 23.4173Z" fill="white"/>
</g>
<defs>
<clipPath id="clip0_9999_1459">
<rect width="60" height="60" fill="white"/>
</clipPath>
</defs>
</svg>
