<svg width="157" height="163" viewBox="0 0 157 163" fill="none" xmlns="http://www.w3.org/2000/svg">
<line y1="-1" x2="12.2927" y2="-1" transform="matrix(0.346554 -0.93803 0.941315 0.33753 62.6406 12.8862)" stroke="#D0D5DD" stroke-width="2"/>
<line y1="-1" x2="12.3174" y2="-1" transform="matrix(0.505613 -0.86276 0.86923 0.494408 89.1875 12.5034)" stroke="#D0D5DD" stroke-width="2"/>
<line y1="-1" x2="12.3476" y2="-1" transform="matrix(0.648413 -0.761289 0.770747 0.637142 115.875 12.1206)" stroke="#D0D5DD" stroke-width="2"/>
<line y1="-1" x2="12.3797" y2="-1" transform="matrix(0.770747 -0.637142 0.648413 0.761289 142.75 11.353)" stroke="#D0D5DD" stroke-width="2"/>
<line x1="8.78125" y1="13.271" x2="8.78125" y2="1.00002" stroke="#D0D5DD" stroke-width="2"/>
<line y1="-1" x2="12.2766" y2="-1" transform="matrix(0.176182 -0.984358 0.985245 0.171149 36.1875 13.271)" stroke="#D0D5DD" stroke-width="2"/>
<line y1="-1" x2="12.2927" y2="-1" transform="matrix(0.346554 -0.93803 0.941315 0.33753 34.6094 34.3608)" stroke="#D0D5DD" stroke-width="2"/>
<line y1="-1" x2="12.3174" y2="-1" transform="matrix(0.505613 -0.86276 0.86923 0.494408 61.1562 33.978)" stroke="#D0D5DD" stroke-width="2"/>
<line y1="-1" x2="12.3476" y2="-1" transform="matrix(0.648413 -0.761289 0.770747 0.637142 87.8516 33.5952)" stroke="#D0D5DD" stroke-width="2"/>
<line y1="-1" x2="12.3797" y2="-1" transform="matrix(0.770747 -0.637142 0.648413 0.761289 114.727 32.8276)" stroke="#D0D5DD" stroke-width="2"/>
<line y1="-1" x2="12.4098" y2="-1" transform="matrix(0.86923 -0.494408 0.505613 0.86276 141.812 31.6772)" stroke="#D0D5DD" stroke-width="2"/>
<line y1="-1" x2="12.2766" y2="-1" transform="matrix(0.176182 -0.984358 0.985245 0.171149 8.15625 34.7437)" stroke="#D0D5DD" stroke-width="2"/>
<line y1="-1" x2="12.2927" y2="-1" transform="matrix(0.346554 -0.93803 0.941315 0.33753 6.58594 55.8354)" stroke="#D0D5DD" stroke-width="2"/>
<line y1="-1" x2="12.3174" y2="-1" transform="matrix(0.505613 -0.86276 0.86923 0.494408 33.1406 55.4526)" stroke="#D0D5DD" stroke-width="2"/>
<line y1="-1" x2="12.3476" y2="-1" transform="matrix(0.648413 -0.761289 0.770747 0.637142 59.8281 55.0679)" stroke="#D0D5DD" stroke-width="2"/>
<line y1="-1" x2="12.3797" y2="-1" transform="matrix(0.770747 -0.637142 0.648413 0.761289 86.7031 54.3022)" stroke="#D0D5DD" stroke-width="2"/>
<line y1="-1" x2="12.4098" y2="-1" transform="matrix(0.86923 -0.494408 0.505613 0.86276 113.797 53.1519)" stroke="#D0D5DD" stroke-width="2"/>
<line y1="-1" x2="12.4342" y2="-1" transform="matrix(0.941315 -0.33753 0.346554 0.93803 141.125 52.3843)" stroke="#D0D5DD" stroke-width="2"/>
<line y1="-1" x2="12.3174" y2="-1" transform="matrix(0.505613 -0.86276 0.86923 0.494408 5.10938 76.9272)" stroke="#D0D5DD" stroke-width="2"/>
<line y1="-1" x2="12.3476" y2="-1" transform="matrix(0.648413 -0.761289 0.770747 0.637142 31.7969 76.5425)" stroke="#D0D5DD" stroke-width="2"/>
<line y1="-1" x2="12.3797" y2="-1" transform="matrix(0.770747 -0.637142 0.648413 0.761289 58.6719 75.7769)" stroke="#D0D5DD" stroke-width="2"/>
<line y1="-1" x2="12.4098" y2="-1" transform="matrix(0.86923 -0.494408 0.505613 0.86276 85.7656 74.6265)" stroke="#D0D5DD" stroke-width="2"/>
<line y1="-1" x2="12.4342" y2="-1" transform="matrix(0.941315 -0.33753 0.346554 0.93803 113.109 73.8589)" stroke="#D0D5DD" stroke-width="2"/>
<line y1="-1" x2="12.451" y2="-1" transform="matrix(0.985245 -0.171149 0.176182 0.984358 140.711 72.7085)" stroke="#D0D5DD" stroke-width="2"/>
<line y1="-1" x2="12.3476" y2="-1" transform="matrix(0.648413 -0.761289 0.770747 0.637142 3.78125 98.0171)" stroke="#D0D5DD" stroke-width="2"/>
<line y1="-1" x2="12.3797" y2="-1" transform="matrix(0.770747 -0.637142 0.648413 0.761289 30.6562 97.2495)" stroke="#D0D5DD" stroke-width="2"/>
<line y1="-1" x2="12.4098" y2="-1" transform="matrix(0.86923 -0.494408 0.505613 0.86276 57.7422 96.1011)" stroke="#D0D5DD" stroke-width="2"/>
<line y1="-1" x2="12.4342" y2="-1" transform="matrix(0.941315 -0.33753 0.346554 0.93803 85.0781 95.3315)" stroke="#D0D5DD" stroke-width="2"/>
<line y1="-1" x2="12.451" y2="-1" transform="matrix(0.985245 -0.171149 0.176182 0.984358 112.688 94.1831)" stroke="#D0D5DD" stroke-width="2"/>
<line x1="156.141" y1="94.0327" x2="143.685" y2="94.0327" stroke="#D0D5DD" stroke-width="2"/>
<line y1="-1" x2="12.3797" y2="-1" transform="matrix(0.770747 -0.637142 0.648413 0.761289 2.625 118.724)" stroke="#D0D5DD" stroke-width="2"/>
<line y1="-1" x2="12.4098" y2="-1" transform="matrix(0.86923 -0.494408 0.505613 0.86276 29.7188 117.574)" stroke="#D0D5DD" stroke-width="2"/>
<line y1="-1" x2="12.4342" y2="-1" transform="matrix(0.941315 -0.33753 0.346554 0.93803 57.0547 116.806)" stroke="#D0D5DD" stroke-width="2"/>
<line y1="-1" x2="12.451" y2="-1" transform="matrix(0.985245 -0.171149 0.176182 0.984358 84.6562 115.656)" stroke="#D0D5DD" stroke-width="2"/>
<line x1="128.109" y1="115.507" x2="115.654" y2="115.507" stroke="#D0D5DD" stroke-width="2"/>
<line y1="-1" x2="12.451" y2="-1" transform="matrix(-0.985245 -0.171149 0.176182 -0.984358 156 115.656)" stroke="#D0D5DD" stroke-width="2"/>
<line y1="-1" x2="12.4098" y2="-1" transform="matrix(0.86923 -0.494408 0.505613 0.86276 1.6875 139.048)" stroke="#D0D5DD" stroke-width="2"/>
<line y1="-1" x2="12.4342" y2="-1" transform="matrix(0.941315 -0.33753 0.346554 0.93803 29.0312 138.281)" stroke="#D0D5DD" stroke-width="2"/>
<line y1="-1" x2="12.451" y2="-1" transform="matrix(0.985245 -0.171149 0.176182 0.984358 56.6328 137.13)" stroke="#D0D5DD" stroke-width="2"/>
<line x1="100.086" y1="136.98" x2="87.6302" y2="136.98" stroke="#D0D5DD" stroke-width="2"/>
<line y1="-1" x2="12.451" y2="-1" transform="matrix(-0.985245 -0.171149 0.176182 -0.984358 127.969 137.13)" stroke="#D0D5DD" stroke-width="2"/>
<line y1="-1" x2="12.4342" y2="-1" transform="matrix(-0.941315 -0.33753 0.346554 -0.93803 155.578 138.281)" stroke="#D0D5DD" stroke-width="2"/>
<line y1="-1" x2="12.4342" y2="-1" transform="matrix(0.941315 -0.33753 0.346554 0.93803 1 159.755)" stroke="#D0D5DD" stroke-width="2"/>
<line y1="-1" x2="12.451" y2="-1" transform="matrix(0.985245 -0.171149 0.176182 0.984358 28.6094 158.605)" stroke="#D0D5DD" stroke-width="2"/>
<line y1="-1" x2="12.4098" y2="-1" transform="matrix(-0.86923 -0.494408 0.505613 -0.86276 154.891 160.523)" stroke="#D0D5DD" stroke-width="2"/>
<line x1="72.0625" y1="158.455" x2="59.6068" y2="158.455" stroke="#D0D5DD" stroke-width="2"/>
<line y1="-1" x2="12.451" y2="-1" transform="matrix(-0.985245 -0.171149 0.176182 -0.984358 99.9453 158.605)" stroke="#D0D5DD" stroke-width="2"/>
<line y1="-1" x2="12.4342" y2="-1" transform="matrix(-0.941315 -0.33753 0.346554 -0.93803 127.547 159.755)" stroke="#D0D5DD" stroke-width="2"/>
</svg>
