<svg width="21" height="20" viewBox="0 0 21 20" fill="none" xmlns="http://www.w3.org/2000/svg">
<g clip-path="url(#clip0_9747_2529)">
<path d="M10.9883 1.80078C13.6602 1.80078 13.9766 1.8125 15.0273 1.85937C16.0039 1.90234 16.5313 2.06641 16.8828 2.20313C17.3477 2.38281 17.6836 2.60156 18.0313 2.94922C18.3828 3.30078 18.5977 3.63281 18.7773 4.09766C18.9141 4.44922 19.0781 4.98047 19.1211 5.95312C19.168 7.00781 19.1797 7.32422 19.1797 9.99219C19.1797 12.6641 19.168 12.9805 19.1211 14.0313C19.0781 15.0078 18.9141 15.5352 18.7773 15.8867C18.5977 16.3516 18.3789 16.6875 18.0313 17.0352C17.6797 17.3867 17.3477 17.6016 16.8828 17.7813C16.5313 17.918 16 18.082 15.0273 18.125C13.9727 18.1719 13.6563 18.1836 10.9883 18.1836C8.31641 18.1836 8 18.1719 6.94922 18.125C5.97266 18.082 5.44531 17.918 5.09375 17.7813C4.62891 17.6016 4.29297 17.3828 3.94531 17.0352C3.59375 16.6836 3.37891 16.3516 3.19922 15.8867C3.0625 15.5352 2.89844 15.0039 2.85547 14.0313C2.80859 12.9766 2.79688 12.6602 2.79688 9.99219C2.79688 7.32031 2.80859 7.00391 2.85547 5.95312C2.89844 4.97656 3.0625 4.44922 3.19922 4.09766C3.37891 3.63281 3.59766 3.29688 3.94531 2.94922C4.29688 2.59766 4.62891 2.38281 5.09375 2.20313C5.44531 2.06641 5.97656 1.90234 6.94922 1.85937C8 1.8125 8.31641 1.80078 10.9883 1.80078ZM10.9883 0C8.27344 0 7.93359 0.0117187 6.86719 0.0585938C5.80469 0.105469 5.07422 0.277344 4.44141 0.523438C3.78125 0.78125 3.22266 1.12109 2.66797 1.67969C2.10938 2.23438 1.76953 2.79297 1.51172 3.44922C1.26562 4.08594 1.09375 4.8125 1.04688 5.875C1 6.94531 0.988281 7.28516 0.988281 10C0.988281 12.7148 1 13.0547 1.04688 14.1211C1.09375 15.1836 1.26562 15.9141 1.51172 16.5469C1.76953 17.207 2.10938 17.7656 2.66797 18.3203C3.22266 18.875 3.78125 19.2188 4.4375 19.4727C5.07422 19.7188 5.80078 19.8906 6.86328 19.9375C7.92969 19.9844 8.26953 19.9961 10.9844 19.9961C13.6992 19.9961 14.0391 19.9844 15.1055 19.9375C16.168 19.8906 16.8984 19.7188 17.5313 19.4727C18.1875 19.2188 18.7461 18.875 19.3008 18.3203C19.8555 17.7656 20.1992 17.207 20.4531 16.5508C20.6992 15.9141 20.8711 15.1875 20.918 14.125C20.9648 13.0586 20.9766 12.7188 20.9766 10.0039C20.9766 7.28906 20.9648 6.94922 20.918 5.88281C20.8711 4.82031 20.6992 4.08984 20.4531 3.45703C20.207 2.79297 19.8672 2.23438 19.3086 1.67969C18.7539 1.125 18.1953 0.78125 17.5391 0.527344C16.9023 0.28125 16.1758 0.109375 15.1133 0.0625C14.043 0.0117188 13.7031 0 10.9883 0Z" fill="#98A2B3"/>
<path d="M10.9883 4.86328C8.15234 4.86328 5.85156 7.16406 5.85156 10C5.85156 12.8359 8.15234 15.1367 10.9883 15.1367C13.8242 15.1367 16.125 12.8359 16.125 10C16.125 7.16406 13.8242 4.86328 10.9883 4.86328ZM10.9883 13.332C9.14844 13.332 7.65625 11.8398 7.65625 10C7.65625 8.16016 9.14844 6.66797 10.9883 6.66797C12.8281 6.66797 14.3203 8.16016 14.3203 10C14.3203 11.8398 12.8281 13.332 10.9883 13.332Z" fill="#98A2B3"/>
<path d="M17.5273 4.66016C17.5273 5.32422 16.9883 5.85938 16.3281 5.85938C15.6641 5.85938 15.1289 5.32031 15.1289 4.66016C15.1289 3.99609 15.668 3.46094 16.3281 3.46094C16.9883 3.46094 17.5273 4 17.5273 4.66016Z" fill="#98A2B3"/>
</g>
<defs>
<clipPath id="clip0_9747_2529">
<rect width="20" height="20" fill="white" transform="translate(0.988281)"/>
</clipPath>
</defs>
</svg>
