<svg width="21" height="20" viewBox="0 0 21 20" fill="none" xmlns="http://www.w3.org/2000/svg">
<g clip-path="url(#clip0_9747_2526)">
<path d="M19.5078 0H2.46484C1.64844 0 0.988281 0.644531 0.988281 1.44141V18.5547C0.988281 19.3516 1.64844 20 2.46484 20H19.5078C20.3242 20 20.9883 19.3516 20.9883 18.5586V1.44141C20.9883 0.644531 20.3242 0 19.5078 0ZM6.92187 17.043H3.95312V7.49609H6.92187V17.043ZM5.4375 6.19531C4.48438 6.19531 3.71484 5.42578 3.71484 4.47656C3.71484 3.52734 4.48438 2.75781 5.4375 2.75781C6.38672 2.75781 7.15625 3.52734 7.15625 4.47656C7.15625 5.42188 6.38672 6.19531 5.4375 6.19531ZM18.0312 17.043H15.0664V12.4023C15.0664 11.2969 15.0469 9.87109 13.5234 9.87109C11.9805 9.87109 11.7461 11.0781 11.7461 12.3242V17.043H8.78516V7.49609H11.6289V8.80078H11.668C12.0625 8.05078 13.0313 7.25781 14.4727 7.25781C17.4766 7.25781 18.0312 9.23438 18.0312 11.8047V17.043Z" fill="#98A2B3"/>
</g>
<defs>
<clipPath id="clip0_9747_2526">
<rect width="20" height="20" fill="white" transform="translate(0.988281)"/>
</clipPath>
</defs>
</svg>
