<svg width="50" height="57" viewBox="0 0 50 57" fill="none" xmlns="http://www.w3.org/2000/svg">
<g clip-path="url(#clip0_9973_12481)">
<path d="M45.6371 22.9319H4.36293C2.24006 22.9319 0.5 24.6665 0.5 26.7828V53.1318C0.5 55.2481 2.24006 56.9827 4.36293 56.9827H45.6197C47.7425 56.9827 49.4826 55.2481 49.4826 53.1318V26.7828C49.4826 24.6665 47.7425 22.9319 45.6197 22.9319H45.6371ZM27.9233 39.9833L30.1332 49.5064C30.255 50.0095 29.9244 50.4084 29.4197 50.4084H20.5977C20.093 50.4084 19.7624 49.9921 19.8668 49.5064L22.0767 39.9833C22.1985 39.4803 21.9897 38.7864 21.6243 38.4221C21.6243 38.4221 19.658 36.462 19.658 34.5192C19.658 31.5703 22.0419 29.1939 25 29.1939C27.9581 29.1939 30.342 31.5703 30.342 34.5192C30.342 36.4794 28.3757 38.4221 28.3757 38.4221C28.0103 38.7864 27.8015 39.4803 27.9233 39.9833Z" fill="#00AEEF"/>
<path d="M7.21649 20.6768H11.7232C12.1408 20.6768 12.4715 20.3472 12.4715 19.9309V18.0055C12.4715 11.3792 17.8656 6.00184 24.5126 6.00184H25.4697C32.1167 6.00184 37.5109 11.3792 37.5109 18.0055V19.9309C37.5109 20.3472 37.8415 20.6768 38.2591 20.6768H42.7658C43.1835 20.6768 43.5141 20.3472 43.5141 19.9309V17.9361C43.5141 17.9361 43.5141 17.9361 43.5141 17.9188C43.4619 8.03136 35.388 0.017362 25.4523 0.017362H24.4952C14.5943 1.57133e-05 6.52046 8.03136 6.46826 17.9014C6.46826 17.9014 6.46826 17.9014 6.46826 17.9188V19.9136C6.46826 20.3299 6.79887 20.6595 7.21649 20.6595V20.6768Z" fill="#00AEEF"/>
</g>
<defs>
<clipPath id="clip0_9973_12481">
<rect width="49" height="57" fill="white" transform="translate(0.5)"/>
</clipPath>
</defs>
</svg>
