<svg width="58" height="64" viewBox="0 0 58 64" fill="none" xmlns="http://www.w3.org/2000/svg">
<g clip-path="url(#clip0_9973_12528)">
<path d="M9.64177 33.4168C6.44654 25.0862 6.39048 15.7922 6.55865 11.5797L27.3183 6.7438L27.4491 6.78158V0.0377804L27.2996 0L0.523215 6.23377L0.261617 8.55726C0.186875 9.14286 -1.28928 23.1216 3.58765 35.7969C10.6882 54.2904 25.2629 62.7532 25.8795 63.0933L27.4678 64V56.3117C23.7681 53.7048 14.5748 46.2432 9.64177 33.4168Z" fill="#00AEEF"/>
<path d="M47.9845 22.0071C47.5548 25.6151 46.7513 29.601 45.2751 33.3979C40.2113 46.3755 31.1301 53.7615 27.4678 56.3117V63.9811L29.0374 63.0933C29.654 62.7533 44.0232 54.5171 51.3292 35.7969C54.4871 27.6742 54.9916 19.0036 54.9356 13.6765L48.0032 22.0071H47.9845Z" fill="#00AEEF"/>
<path d="M45.9104 11.0319L46.7326 10.0119H54.7861C54.73 9.1807 54.674 8.65177 54.6553 8.55732L54.3937 6.25272L27.4678 0.0378418V6.78164L45.9104 11.0319Z" fill="#00AEEF"/>
<path d="M18.5733 24.6329L9.23047 24.1606L27.4676 46.6589V34.0591L18.5733 24.6329Z" fill="#39B54A"/>
<path d="M54.7861 9.99292H46.7326L45.9104 11.0319L27.4678 34.059V46.6588L47.9845 22.0071L54.9356 13.6765L58 9.99292H54.7861Z" fill="#39B54A"/>
</g>
<defs>
<clipPath id="clip0_9973_12528">
<rect width="58" height="64" fill="white"/>
</clipPath>
</defs>
</svg>
