<svg width="24" height="24" viewBox="0 0 24 24" fill="none" xmlns="http://www.w3.org/2000/svg">
<path d="M12 8.68042V15.6804M15.5 12.1804H8.5M22.5 12.1804C22.5 13.5593 22.2284 14.9247 21.7007 16.1986C21.1731 17.4725 20.3996 18.63 19.4246 19.605C18.4496 20.5801 17.2921 21.3535 16.0182 21.8812C14.7443 22.4088 13.3789 22.6804 12 22.6804C10.6211 22.6804 9.25574 22.4088 7.98182 21.8812C6.70791 21.3535 5.55039 20.5801 4.57538 19.605C3.60036 18.63 2.82694 17.4725 2.29926 16.1986C1.77159 14.9247 1.5 13.5593 1.5 12.1804C1.5 9.39565 2.60625 6.72493 4.57538 4.7558C6.54451 2.78667 9.21523 1.68042 12 1.68042C14.7848 1.68042 17.4555 2.78667 19.4246 4.7558C21.3938 6.72493 22.5 9.39565 22.5 12.1804Z" stroke="#98A2B3" stroke-width="2" stroke-linecap="round" stroke-linejoin="round"/>
</svg>
