<svg width="80" height="65" viewBox="0 0 80 65" fill="none" xmlns="http://www.w3.org/2000/svg">
<g clip-path="url(#clip0_9832_4021)">
<path d="M41.3982 30.8827L37.2737 28.6795L39.1253 24.3368C38.4996 23.7383 37.9377 23.0633 37.4653 22.3247L32.83 23.2798L31.4764 18.8098L35.8563 17.0396C35.8308 16.1609 35.9202 15.2821 36.1117 14.4416L32.166 11.8437L34.3751 7.73023L38.7294 9.57682C39.3296 8.9528 40.0064 8.39245 40.747 7.92125L39.7893 3.29841L44.2713 1.94849L46.0463 6.31663C46.9274 6.29116 47.8084 6.3803 48.6512 6.57133L51.2562 2.63618L55.3807 4.83936L53.5419 9.18203C54.1676 9.78058 54.7294 10.4555 55.2019 11.1942L59.8372 10.239L61.1907 14.7091L56.8108 16.4792C56.8364 17.358 56.747 18.2367 56.5554 19.0772L60.5012 21.6752L58.2921 25.7886L53.9377 23.9548C53.3376 24.5788 52.6608 25.1391 51.9202 25.6103L52.8779 30.2332L48.3958 31.5831L46.6209 27.2149C45.7398 27.2404 44.8587 27.1513 44.0159 26.9602L41.411 30.8954L41.3982 30.8827ZM45.1524 12.8752C47.5403 12.162 49.494 13.2063 50.2218 15.5878C50.9369 17.9693 49.8898 19.9177 47.5147 20.6436C45.1396 21.3695 43.1732 20.3125 42.4453 17.931C41.7302 15.5496 42.7773 13.6011 45.1652 12.8752H45.1524ZM14.889 62.1601L9.50038 59.2819L11.901 53.6148C11.0838 52.838 10.3559 51.9593 9.74299 50.9914L3.70309 52.2267L1.94092 46.394L7.66159 44.089C7.63605 42.9428 7.75097 41.8094 7.99359 40.7014L2.84754 37.3139L5.73342 31.9397L11.4158 34.3339C12.1947 33.5188 13.0758 32.7929 14.0463 32.1816L12.8076 26.1579L18.656 24.4005L20.9673 30.1058C22.1165 30.0803 23.2657 30.195 24.3639 30.4369L27.7605 25.3047L33.1492 28.1828L30.7486 33.8499C31.5658 34.6268 32.2937 35.5055 32.9066 36.4861L38.9465 35.2508L40.7087 41.0835L34.988 43.3885C35.0135 44.5347 34.8986 45.6809 34.656 46.7761L39.8021 50.1636L36.9162 55.5378L31.2338 53.1436C30.4549 53.9587 29.5738 54.6846 28.5906 55.2959L29.8292 61.3196L23.9808 63.077L21.6696 57.3717C20.5203 57.3972 19.3839 57.2825 18.2729 57.0406L14.8763 62.1728L14.889 62.1601ZM19.2434 36.8682C23.0487 35.722 27.071 37.8615 28.2202 41.6566C29.3695 45.4516 27.2242 49.4632 23.419 50.6093C19.6137 51.7555 15.5914 49.616 14.4421 45.8209C13.2929 42.0259 15.4381 38.0143 19.2434 36.8682Z" stroke="#00AEEF" stroke-width="2.5" stroke-miterlimit="10"/>
<path d="M74.8541 38.6256C77.6961 38.6256 80.0001 36.3278 80.0001 33.4933C80.0001 30.6589 77.6961 28.3611 74.8541 28.3611C72.012 28.3611 69.708 30.6589 69.708 33.4933C69.708 36.3278 72.012 38.6256 74.8541 38.6256Z" fill="#00A651"/>
<path d="M74.8541 54.8246C77.6961 54.8246 80.0001 52.5268 80.0001 49.6923C80.0001 46.8578 77.6961 44.5601 74.8541 44.5601C72.012 44.5601 69.708 46.8578 69.708 49.6923C69.708 52.5268 72.012 54.8246 74.8541 54.8246Z" fill="#FFF200"/>
</g>
<defs>
<clipPath id="clip0_9832_4021">
<rect width="80" height="65" fill="white"/>
</clipPath>
</defs>
</svg>
