<svg width="82" height="73" viewBox="0 0 82 73" fill="none" xmlns="http://www.w3.org/2000/svg">
<path d="M79.5815 54.8881L79.5274 54.9783C78.6078 56.3847 77.021 57.106 74.8032 57.124H5.45365C3.41608 57.0699 1.88341 56.5831 0.909708 55.6635L0.458919 55.2668C0.422856 55.3569 -0.298401 57.2142 0.747431 58.8009C1.55885 60.0271 3.14562 60.6942 5.4717 60.7483H74.8212C76.7325 60.7303 78.139 60.1533 78.9684 59.0354C80.1405 57.4666 79.7438 55.4471 79.5996 54.9061L79.5815 54.8881Z" fill="#00AEEF"/>
<path d="M6.40854 43.3299L1.77441 52.6162L2.78418 53.626C3.253 54.0587 4.20867 54.3292 5.48892 54.3472H74.7843C76.0104 54.3472 76.8219 54.0407 77.2186 53.4456L78.1382 51.931L73.8466 43.3479C73.5401 42.6808 72.8369 41.7071 71.3583 41.094C72.909 39.9941 73.9187 38.2089 73.9187 36.1714V6.0226C73.9187 2.70479 71.214 0 67.8962 0H12.3409C9.02308 0 6.31835 2.70479 6.31835 6.0226V36.1714C6.31835 38.2089 7.34618 39.9941 8.87886 41.094C7.54453 41.671 6.80524 42.5365 6.40854 43.3299ZM13.2064 6.90613H67.0307V35.3239H13.2064V6.90613Z" fill="#00AEEF"/>
<path d="M77.7238 40.9497H61.9642C60.0889 40.9497 58.5742 42.4644 58.5742 44.3397V68.6281C58.5742 70.5936 60.161 72.1804 62.1264 72.1804H78.7516C80.4465 72.1804 81.8169 70.81 81.8169 69.115V45.0248C81.8169 42.7709 79.9957 40.9497 77.7418 40.9497H77.7238Z" fill="white"/>
<path d="M77.1114 43.1855H63.3173C61.8928 43.1855 60.7207 44.3576 60.7207 45.7821V66.9151C60.7207 68.3396 61.8928 69.5117 63.3173 69.5117H77.1114C78.5359 69.5117 79.708 68.3396 79.708 66.9151V45.7821C79.708 44.3576 78.5359 43.1855 77.1114 43.1855ZM70.2053 68.556C69.6102 68.556 69.1414 68.0691 69.1414 67.4921C69.1414 66.9151 69.6283 66.4283 70.2053 66.4283C70.7823 66.4283 71.2691 66.9151 71.2691 67.4921C71.2691 68.0691 70.7823 68.556 70.2053 68.556ZM77.3999 65.0939C77.3999 65.2562 77.2737 65.3824 77.1114 65.3824H63.3173C63.155 65.3824 63.0287 65.2562 63.0287 65.0939V46.9541C63.0287 46.7919 63.155 46.6656 63.3173 46.6656H77.1114C77.2737 46.6656 77.3999 46.7919 77.3999 46.9541V65.0939Z" fill="#00AEEF"/>
<path d="M70.2032 62.0107C73.5095 62.0107 76.1897 59.3305 76.1897 56.0242C76.1897 52.718 73.5095 50.0377 70.2032 50.0377C66.897 50.0377 64.2168 52.718 64.2168 56.0242C64.2168 59.3305 66.897 62.0107 70.2032 62.0107Z" fill="#009444"/>
<path d="M26.1881 27.0836C29.4943 27.0836 32.1746 24.4033 32.1746 21.0971C32.1746 17.7908 29.4943 15.1106 26.1881 15.1106C22.8819 15.1106 20.2017 17.7908 20.2017 21.0971C20.2017 24.4033 22.8819 27.0836 26.1881 27.0836Z" fill="#7F3F98"/>
<path d="M52.5871 27.1195C55.8933 27.1195 58.5736 24.4393 58.5736 21.133C58.5736 17.8268 55.8933 15.1466 52.5871 15.1466C49.2808 15.1466 46.6006 17.8268 46.6006 21.133C46.6006 24.4393 49.2808 27.1195 52.5871 27.1195Z" fill="#009444"/>
</svg>
