<svg width="68" height="73" viewBox="0 0 68 73" fill="none" xmlns="http://www.w3.org/2000/svg">
<path d="M16.3636 0.0192031C11.4759 0.0192031 7.53108 3.88707 7.53108 8.64009C7.53108 11.9884 9.51312 14.8748 12.3803 16.2988C11.5144 16.5875 10.8986 16.8568 10.8986 16.8568C5.08722 19.3969 0.969238 25.7664 0.969238 33.2519C0.969238 34.2718 1.06543 35.2724 1.21938 36.2731C3.58627 39.1788 7.24244 41.3147 11.4759 42.2961C12.0724 34.8875 15.5747 28.2872 21.0204 24.0922C19.6157 21.8408 18.846 19.2238 18.846 16.472C18.846 11.8922 20.9819 7.79338 24.3495 5.08012C22.964 2.09746 19.9428 0 16.3829 0L16.3636 0.0192031ZM57.0626 16.8184C57.0626 16.8184 56.3891 16.5682 55.4269 16.2796C58.2941 14.8556 60.2761 11.9884 60.2761 8.62083C60.2761 3.86781 56.3121 0 51.4436 0C47.9029 0 44.901 2.05901 43.5155 5.00319C46.9215 7.71645 49.096 11.8344 49.096 16.4527C49.096 19.1468 48.3455 21.7061 46.9985 23.9383C52.5405 28.0948 56.0812 34.7529 56.697 42.2191C60.8727 41.2185 64.4519 39.121 66.7995 36.2345C66.9535 35.2531 67.0305 34.2333 67.0305 33.2134C67.0305 25.7086 62.8739 19.3007 57.0241 16.7799L57.0626 16.8184ZM40.3789 25.8241C40.3789 25.8241 39.5899 25.5355 38.5123 25.2083C41.7836 23.5919 44.035 20.3014 44.035 16.472C44.035 11.0455 39.5322 6.6388 33.971 6.6388C28.4098 6.6388 23.9069 11.0455 23.9069 16.472C23.9069 20.3014 26.1776 23.5727 29.4489 25.2083C28.4482 25.5355 27.7555 25.8433 27.7555 25.8433C21.1359 28.749 16.4214 36.0036 16.4214 44.5475C16.4214 45.7214 16.5176 46.8567 16.71 47.9728C20.4431 52.5719 26.8318 55.6123 34.1057 55.6123C41.3795 55.6123 47.7875 52.5719 51.5206 47.9728C51.6938 46.8567 51.79 45.7021 51.79 44.5475C51.79 35.9844 47.037 28.6913 40.3789 25.8241Z" fill="#00AEEF"/>
<path d="M7.78186 72.142C11.1083 72.142 13.8049 69.4453 13.8049 66.1189C13.8049 62.7924 11.1083 60.0958 7.78186 60.0958C4.45541 60.0958 1.75879 62.7924 1.75879 66.1189C1.75879 69.4453 4.45541 72.142 7.78186 72.142Z" fill="#7F3F98"/>
<path d="M33.8951 72.142C37.2216 72.142 39.9182 69.4453 39.9182 66.1189C39.9182 62.7924 37.2216 60.0958 33.8951 60.0958C30.5687 60.0958 27.8721 62.7924 27.8721 66.1189C27.8721 69.4453 30.5687 72.142 33.8951 72.142Z" fill="#ED1C24"/>
<path d="M60.4103 72.1805C63.7367 72.1805 66.4333 69.4839 66.4333 66.1575C66.4333 62.831 63.7367 60.1344 60.4103 60.1344C57.0838 60.1344 54.3872 62.831 54.3872 66.1575C54.3872 69.4839 57.0838 72.1805 60.4103 72.1805Z" fill="#009444"/>
</svg>
