<svg width="21" height="20" viewBox="0 0 21 20" fill="none" xmlns="http://www.w3.org/2000/svg">
<g clip-path="url(#clip0_9747_2528)">
<path d="M20.7891 6C20.7891 6 20.5938 4.62109 19.9922 4.01563C19.2305 3.21875 18.3789 3.21484 17.9883 3.16797C15.1914 2.96484 10.9922 2.96484 10.9922 2.96484H10.9844C10.9844 2.96484 6.78516 2.96484 3.98828 3.16797C3.59766 3.21484 2.74609 3.21875 1.98438 4.01563C1.38281 4.62109 1.19141 6 1.19141 6C1.19141 6 0.988281 7.62109 0.988281 9.23828V10.7539C0.988281 12.3711 1.1875 13.9922 1.1875 13.9922C1.1875 13.9922 1.38281 15.3711 1.98047 15.9766C2.74219 16.7734 3.74219 16.7461 4.1875 16.832C5.78906 16.9844 10.9883 17.0313 10.9883 17.0313C10.9883 17.0313 15.1914 17.0234 17.9883 16.8242C18.3789 16.7773 19.2305 16.7734 19.9922 15.9766C20.5938 15.3711 20.7891 13.9922 20.7891 13.9922C20.7891 13.9922 20.9883 12.375 20.9883 10.7539V9.23828C20.9883 7.62109 20.7891 6 20.7891 6ZM8.92188 12.5938V6.97266L14.3242 9.79297L8.92188 12.5938Z" fill="#98A2B3"/>
</g>
<defs>
<clipPath id="clip0_9747_2528">
<rect width="20" height="20" fill="white" transform="translate(0.988281)"/>
</clipPath>
</defs>
</svg>
